<mxfile host="Electron" modified="2024-08-28T12:40:35.040Z" agent="Mozilla/5.0 (X11; Linux x86_64) AppleWebKit/537.36 (KHTML, like Gecko) draw.io/22.0.3 Chrome/114.0.5735.289 Electron/25.8.4 Safari/537.36" etag="X5tvGwMQJPJfoBN9h-PG" version="22.0.3" type="device" pages="2">
  <diagram name="Tree" id="oB4NinOPoeqdr9seLpQx">
    <mxGraphModel dx="2901" dy="1180" grid="1" gridSize="10" guides="1" tooltips="1" connect="1" arrows="1" fold="1" page="1" pageScale="1" pageWidth="827" pageHeight="1169" math="0" shadow="0">
      <root>
        <mxCell id="0" />
        <mxCell id="1" parent="0" />
        <mxCell id="qRRw0WlQvLEIwjKUzvwP-133" value="" style="rounded=0;whiteSpace=wrap;html=1;" parent="1" vertex="1">
          <mxGeometry x="-360" y="640" width="40" height="40" as="geometry" />
        </mxCell>
        <mxCell id="qRRw0WlQvLEIwjKUzvwP-134" value="" style="rounded=0;whiteSpace=wrap;html=1;" parent="1" vertex="1">
          <mxGeometry x="-320" y="640" width="40" height="40" as="geometry" />
        </mxCell>
        <mxCell id="qRRw0WlQvLEIwjKUzvwP-135" value="" style="rounded=0;whiteSpace=wrap;html=1;" parent="1" vertex="1">
          <mxGeometry x="-240" y="640" width="40" height="40" as="geometry" />
        </mxCell>
        <mxCell id="qRRw0WlQvLEIwjKUzvwP-136" value="" style="rounded=0;whiteSpace=wrap;html=1;" parent="1" vertex="1">
          <mxGeometry x="-280" y="640" width="40" height="40" as="geometry" />
        </mxCell>
        <mxCell id="qRRw0WlQvLEIwjKUzvwP-137" value="" style="rounded=0;whiteSpace=wrap;html=1;" parent="1" vertex="1">
          <mxGeometry x="-160" y="640" width="40" height="40" as="geometry" />
        </mxCell>
        <mxCell id="qRRw0WlQvLEIwjKUzvwP-138" value="" style="rounded=0;whiteSpace=wrap;html=1;" parent="1" vertex="1">
          <mxGeometry x="-200" y="640" width="40" height="40" as="geometry" />
        </mxCell>
        <mxCell id="qRRw0WlQvLEIwjKUzvwP-139" value="" style="rounded=0;whiteSpace=wrap;html=1;" parent="1" vertex="1">
          <mxGeometry x="-80" y="640" width="40" height="40" as="geometry" />
        </mxCell>
        <mxCell id="qRRw0WlQvLEIwjKUzvwP-140" value="" style="rounded=0;whiteSpace=wrap;html=1;" parent="1" vertex="1">
          <mxGeometry x="-120" y="640" width="40" height="40" as="geometry" />
        </mxCell>
        <mxCell id="qRRw0WlQvLEIwjKUzvwP-141" value="" style="rounded=0;whiteSpace=wrap;html=1;" parent="1" vertex="1">
          <mxGeometry x="-360" y="560" width="80" height="40" as="geometry" />
        </mxCell>
        <mxCell id="qRRw0WlQvLEIwjKUzvwP-142" value="" style="rounded=0;whiteSpace=wrap;html=1;" parent="1" vertex="1">
          <mxGeometry x="-280" y="560" width="80" height="40" as="geometry" />
        </mxCell>
        <mxCell id="qRRw0WlQvLEIwjKUzvwP-143" value="" style="rounded=0;whiteSpace=wrap;html=1;" parent="1" vertex="1">
          <mxGeometry x="-200" y="560" width="80" height="40" as="geometry" />
        </mxCell>
        <mxCell id="qRRw0WlQvLEIwjKUzvwP-144" value="" style="rounded=0;whiteSpace=wrap;html=1;" parent="1" vertex="1">
          <mxGeometry x="-120" y="560" width="80" height="40" as="geometry" />
        </mxCell>
        <mxCell id="qRRw0WlQvLEIwjKUzvwP-145" value="" style="rounded=0;whiteSpace=wrap;html=1;" parent="1" vertex="1">
          <mxGeometry x="-360" y="480" width="160" height="40" as="geometry" />
        </mxCell>
        <mxCell id="qRRw0WlQvLEIwjKUzvwP-146" value="" style="rounded=0;whiteSpace=wrap;html=1;" parent="1" vertex="1">
          <mxGeometry x="-200" y="480" width="160" height="40" as="geometry" />
        </mxCell>
        <mxCell id="qRRw0WlQvLEIwjKUzvwP-147" value="" style="rounded=0;whiteSpace=wrap;html=1;" parent="1" vertex="1">
          <mxGeometry x="-360" y="400" width="320" height="40" as="geometry" />
        </mxCell>
        <mxCell id="qRRw0WlQvLEIwjKUzvwP-48" value="" style="group" parent="1" vertex="1" connectable="0">
          <mxGeometry x="140" y="200" width="320" height="160" as="geometry" />
        </mxCell>
        <mxCell id="qRRw0WlQvLEIwjKUzvwP-1" value="" style="rounded=0;whiteSpace=wrap;html=1;" parent="qRRw0WlQvLEIwjKUzvwP-48" vertex="1">
          <mxGeometry y="120" width="40" height="40" as="geometry" />
        </mxCell>
        <mxCell id="qRRw0WlQvLEIwjKUzvwP-2" value="" style="rounded=0;whiteSpace=wrap;html=1;" parent="qRRw0WlQvLEIwjKUzvwP-48" vertex="1">
          <mxGeometry x="40" y="120" width="40" height="40" as="geometry" />
        </mxCell>
        <mxCell id="qRRw0WlQvLEIwjKUzvwP-3" value="" style="rounded=0;whiteSpace=wrap;html=1;" parent="qRRw0WlQvLEIwjKUzvwP-48" vertex="1">
          <mxGeometry x="120" y="120" width="40" height="40" as="geometry" />
        </mxCell>
        <mxCell id="qRRw0WlQvLEIwjKUzvwP-4" value="" style="rounded=0;whiteSpace=wrap;html=1;" parent="qRRw0WlQvLEIwjKUzvwP-48" vertex="1">
          <mxGeometry x="80" y="120" width="40" height="40" as="geometry" />
        </mxCell>
        <mxCell id="qRRw0WlQvLEIwjKUzvwP-5" value="" style="rounded=0;whiteSpace=wrap;html=1;" parent="qRRw0WlQvLEIwjKUzvwP-48" vertex="1">
          <mxGeometry x="200" y="120" width="40" height="40" as="geometry" />
        </mxCell>
        <mxCell id="qRRw0WlQvLEIwjKUzvwP-6" value="" style="rounded=0;whiteSpace=wrap;html=1;" parent="qRRw0WlQvLEIwjKUzvwP-48" vertex="1">
          <mxGeometry x="160" y="120" width="40" height="40" as="geometry" />
        </mxCell>
        <mxCell id="qRRw0WlQvLEIwjKUzvwP-7" value="" style="rounded=0;whiteSpace=wrap;html=1;" parent="qRRw0WlQvLEIwjKUzvwP-48" vertex="1">
          <mxGeometry x="280" y="120" width="40" height="40" as="geometry" />
        </mxCell>
        <mxCell id="qRRw0WlQvLEIwjKUzvwP-8" value="" style="rounded=0;whiteSpace=wrap;html=1;" parent="qRRw0WlQvLEIwjKUzvwP-48" vertex="1">
          <mxGeometry x="240" y="120" width="40" height="40" as="geometry" />
        </mxCell>
        <mxCell id="qRRw0WlQvLEIwjKUzvwP-9" value="" style="rounded=0;whiteSpace=wrap;html=1;" parent="qRRw0WlQvLEIwjKUzvwP-48" vertex="1">
          <mxGeometry y="80" width="80" height="40" as="geometry" />
        </mxCell>
        <mxCell id="qRRw0WlQvLEIwjKUzvwP-12" value="" style="rounded=0;whiteSpace=wrap;html=1;" parent="qRRw0WlQvLEIwjKUzvwP-48" vertex="1">
          <mxGeometry x="80" y="80" width="80" height="40" as="geometry" />
        </mxCell>
        <mxCell id="qRRw0WlQvLEIwjKUzvwP-14" value="" style="rounded=0;whiteSpace=wrap;html=1;" parent="qRRw0WlQvLEIwjKUzvwP-48" vertex="1">
          <mxGeometry x="160" y="80" width="80" height="40" as="geometry" />
        </mxCell>
        <mxCell id="qRRw0WlQvLEIwjKUzvwP-16" value="" style="rounded=0;whiteSpace=wrap;html=1;" parent="qRRw0WlQvLEIwjKUzvwP-48" vertex="1">
          <mxGeometry x="240" y="80" width="80" height="40" as="geometry" />
        </mxCell>
        <mxCell id="qRRw0WlQvLEIwjKUzvwP-17" value="" style="rounded=0;whiteSpace=wrap;html=1;" parent="qRRw0WlQvLEIwjKUzvwP-48" vertex="1">
          <mxGeometry y="40" width="160" height="40" as="geometry" />
        </mxCell>
        <mxCell id="qRRw0WlQvLEIwjKUzvwP-19" value="" style="rounded=0;whiteSpace=wrap;html=1;" parent="qRRw0WlQvLEIwjKUzvwP-48" vertex="1">
          <mxGeometry x="160" y="40" width="160" height="40" as="geometry" />
        </mxCell>
        <mxCell id="qRRw0WlQvLEIwjKUzvwP-21" value="" style="rounded=0;whiteSpace=wrap;html=1;" parent="qRRw0WlQvLEIwjKUzvwP-48" vertex="1">
          <mxGeometry width="320" height="40" as="geometry" />
        </mxCell>
        <mxCell id="qRRw0WlQvLEIwjKUzvwP-22" value="" style="ellipse;whiteSpace=wrap;html=1;aspect=fixed;" parent="1" vertex="1">
          <mxGeometry x="500" y="560" width="40" height="40" as="geometry" />
        </mxCell>
        <mxCell id="qRRw0WlQvLEIwjKUzvwP-23" value="" style="ellipse;whiteSpace=wrap;html=1;aspect=fixed;" parent="1" vertex="1">
          <mxGeometry x="420" y="640" width="40" height="40" as="geometry" />
        </mxCell>
        <mxCell id="qRRw0WlQvLEIwjKUzvwP-24" value="" style="ellipse;whiteSpace=wrap;html=1;aspect=fixed;" parent="1" vertex="1">
          <mxGeometry x="380" y="720" width="40" height="40" as="geometry" />
        </mxCell>
        <mxCell id="qRRw0WlQvLEIwjKUzvwP-25" value="" style="ellipse;whiteSpace=wrap;html=1;aspect=fixed;" parent="1" vertex="1">
          <mxGeometry x="460" y="720" width="40" height="40" as="geometry" />
        </mxCell>
        <mxCell id="qRRw0WlQvLEIwjKUzvwP-33" value="" style="ellipse;whiteSpace=wrap;html=1;aspect=fixed;" parent="1" vertex="1">
          <mxGeometry x="640" y="800" width="40" height="40" as="geometry" />
        </mxCell>
        <mxCell id="qRRw0WlQvLEIwjKUzvwP-36" value="" style="ellipse;whiteSpace=wrap;html=1;aspect=fixed;" parent="1" vertex="1">
          <mxGeometry x="580" y="640" width="40" height="40" as="geometry" />
        </mxCell>
        <mxCell id="qRRw0WlQvLEIwjKUzvwP-37" value="" style="ellipse;whiteSpace=wrap;html=1;aspect=fixed;" parent="1" vertex="1">
          <mxGeometry x="540" y="720" width="40" height="40" as="geometry" />
        </mxCell>
        <mxCell id="qRRw0WlQvLEIwjKUzvwP-38" value="" style="ellipse;whiteSpace=wrap;html=1;aspect=fixed;" parent="1" vertex="1">
          <mxGeometry x="620" y="720" width="40" height="40" as="geometry" />
        </mxCell>
        <mxCell id="qRRw0WlQvLEIwjKUzvwP-39" value="" style="endArrow=none;html=1;rounded=0;" parent="1" source="qRRw0WlQvLEIwjKUzvwP-23" target="qRRw0WlQvLEIwjKUzvwP-22" edge="1">
          <mxGeometry width="50" height="50" relative="1" as="geometry">
            <mxPoint x="460" y="520" as="sourcePoint" />
            <mxPoint x="510" y="470" as="targetPoint" />
          </mxGeometry>
        </mxCell>
        <mxCell id="qRRw0WlQvLEIwjKUzvwP-50" value="" style="endArrow=none;html=1;rounded=0;" parent="1" source="qRRw0WlQvLEIwjKUzvwP-22" target="qRRw0WlQvLEIwjKUzvwP-36" edge="1">
          <mxGeometry width="50" height="50" relative="1" as="geometry">
            <mxPoint x="600.11" y="572.06" as="sourcePoint" />
            <mxPoint x="644.11" y="550.06" as="targetPoint" />
          </mxGeometry>
        </mxCell>
        <mxCell id="qRRw0WlQvLEIwjKUzvwP-51" value="" style="endArrow=none;html=1;rounded=0;" parent="1" source="qRRw0WlQvLEIwjKUzvwP-24" target="qRRw0WlQvLEIwjKUzvwP-23" edge="1">
          <mxGeometry width="50" height="50" relative="1" as="geometry">
            <mxPoint x="340.11" y="630.06" as="sourcePoint" />
            <mxPoint x="384.11" y="652.06" as="targetPoint" />
          </mxGeometry>
        </mxCell>
        <mxCell id="qRRw0WlQvLEIwjKUzvwP-52" value="" style="endArrow=none;html=1;rounded=0;" parent="1" source="qRRw0WlQvLEIwjKUzvwP-25" target="qRRw0WlQvLEIwjKUzvwP-23" edge="1">
          <mxGeometry width="50" height="50" relative="1" as="geometry">
            <mxPoint x="508.14" y="666" as="sourcePoint" />
            <mxPoint x="520.14" y="654" as="targetPoint" />
          </mxGeometry>
        </mxCell>
        <mxCell id="qRRw0WlQvLEIwjKUzvwP-53" value="" style="endArrow=none;html=1;rounded=0;" parent="1" source="qRRw0WlQvLEIwjKUzvwP-37" target="qRRw0WlQvLEIwjKUzvwP-36" edge="1">
          <mxGeometry width="50" height="50" relative="1" as="geometry">
            <mxPoint x="521.86" y="666" as="sourcePoint" />
            <mxPoint x="509.86" y="654" as="targetPoint" />
          </mxGeometry>
        </mxCell>
        <mxCell id="qRRw0WlQvLEIwjKUzvwP-54" value="" style="endArrow=none;html=1;rounded=0;" parent="1" source="qRRw0WlQvLEIwjKUzvwP-36" target="qRRw0WlQvLEIwjKUzvwP-38" edge="1">
          <mxGeometry width="50" height="50" relative="1" as="geometry">
            <mxPoint x="659.86" y="666" as="sourcePoint" />
            <mxPoint x="671.86" y="654" as="targetPoint" />
          </mxGeometry>
        </mxCell>
        <mxCell id="qRRw0WlQvLEIwjKUzvwP-55" value="" style="endArrow=none;html=1;rounded=0;" parent="1" source="qRRw0WlQvLEIwjKUzvwP-64" target="qRRw0WlQvLEIwjKUzvwP-24" edge="1">
          <mxGeometry width="50" height="50" relative="1" as="geometry">
            <mxPoint x="388.94427190997885" y="762.1114561800428" as="sourcePoint" />
            <mxPoint x="344.11" y="720.06" as="targetPoint" />
          </mxGeometry>
        </mxCell>
        <mxCell id="qRRw0WlQvLEIwjKUzvwP-57" value="" style="endArrow=none;html=1;rounded=0;" parent="1" source="qRRw0WlQvLEIwjKUzvwP-65" target="qRRw0WlQvLEIwjKUzvwP-24" edge="1">
          <mxGeometry width="50" height="50" relative="1" as="geometry">
            <mxPoint x="411.0557280900007" y="762.1114561800014" as="sourcePoint" />
            <mxPoint x="458" y="738" as="targetPoint" />
          </mxGeometry>
        </mxCell>
        <mxCell id="qRRw0WlQvLEIwjKUzvwP-58" value="" style="endArrow=none;html=1;rounded=0;" parent="1" source="qRRw0WlQvLEIwjKUzvwP-66" target="qRRw0WlQvLEIwjKUzvwP-25" edge="1">
          <mxGeometry width="50" height="50" relative="1" as="geometry">
            <mxPoint x="468.9442719099991" y="762.111456180002" as="sourcePoint" />
            <mxPoint x="510" y="830" as="targetPoint" />
          </mxGeometry>
        </mxCell>
        <mxCell id="qRRw0WlQvLEIwjKUzvwP-59" value="" style="endArrow=none;html=1;rounded=0;" parent="1" source="qRRw0WlQvLEIwjKUzvwP-67" target="qRRw0WlQvLEIwjKUzvwP-25" edge="1">
          <mxGeometry width="50" height="50" relative="1" as="geometry">
            <mxPoint x="491.0557280900007" y="762.1114561800014" as="sourcePoint" />
            <mxPoint x="474" y="830" as="targetPoint" />
          </mxGeometry>
        </mxCell>
        <mxCell id="qRRw0WlQvLEIwjKUzvwP-60" value="" style="endArrow=none;html=1;rounded=0;" parent="1" source="qRRw0WlQvLEIwjKUzvwP-68" target="qRRw0WlQvLEIwjKUzvwP-37" edge="1">
          <mxGeometry width="50" height="50" relative="1" as="geometry">
            <mxPoint x="548.9442719099991" y="762.111456180002" as="sourcePoint" />
            <mxPoint x="524" y="830" as="targetPoint" />
          </mxGeometry>
        </mxCell>
        <mxCell id="qRRw0WlQvLEIwjKUzvwP-61" value="" style="endArrow=none;html=1;rounded=0;" parent="1" source="qRRw0WlQvLEIwjKUzvwP-69" target="qRRw0WlQvLEIwjKUzvwP-37" edge="1">
          <mxGeometry width="50" height="50" relative="1" as="geometry">
            <mxPoint x="571.0557280900211" y="762.1114561800423" as="sourcePoint" />
            <mxPoint x="520" y="830" as="targetPoint" />
          </mxGeometry>
        </mxCell>
        <mxCell id="qRRw0WlQvLEIwjKUzvwP-62" value="" style="endArrow=none;html=1;rounded=0;" parent="1" source="qRRw0WlQvLEIwjKUzvwP-70" target="qRRw0WlQvLEIwjKUzvwP-38" edge="1">
          <mxGeometry width="50" height="50" relative="1" as="geometry">
            <mxPoint x="628.9442719099991" y="762.111456180002" as="sourcePoint" />
            <mxPoint x="564" y="830" as="targetPoint" />
          </mxGeometry>
        </mxCell>
        <mxCell id="qRRw0WlQvLEIwjKUzvwP-63" value="" style="endArrow=none;html=1;rounded=0;" parent="1" source="qRRw0WlQvLEIwjKUzvwP-33" target="qRRw0WlQvLEIwjKUzvwP-38" edge="1">
          <mxGeometry width="50" height="50" relative="1" as="geometry">
            <mxPoint x="516" y="842" as="sourcePoint" />
            <mxPoint x="560" y="820" as="targetPoint" />
          </mxGeometry>
        </mxCell>
        <mxCell id="qRRw0WlQvLEIwjKUzvwP-64" value="" style="ellipse;whiteSpace=wrap;html=1;aspect=fixed;" parent="1" vertex="1">
          <mxGeometry x="360" y="800" width="40" height="40" as="geometry" />
        </mxCell>
        <mxCell id="qRRw0WlQvLEIwjKUzvwP-65" value="" style="ellipse;whiteSpace=wrap;html=1;aspect=fixed;" parent="1" vertex="1">
          <mxGeometry x="400" y="800" width="40" height="40" as="geometry" />
        </mxCell>
        <mxCell id="qRRw0WlQvLEIwjKUzvwP-66" value="" style="ellipse;whiteSpace=wrap;html=1;aspect=fixed;" parent="1" vertex="1">
          <mxGeometry x="440" y="800" width="40" height="40" as="geometry" />
        </mxCell>
        <mxCell id="qRRw0WlQvLEIwjKUzvwP-67" value="" style="ellipse;whiteSpace=wrap;html=1;aspect=fixed;" parent="1" vertex="1">
          <mxGeometry x="480" y="800" width="40" height="40" as="geometry" />
        </mxCell>
        <mxCell id="qRRw0WlQvLEIwjKUzvwP-68" value="" style="ellipse;whiteSpace=wrap;html=1;aspect=fixed;" parent="1" vertex="1">
          <mxGeometry x="520" y="800" width="40" height="40" as="geometry" />
        </mxCell>
        <mxCell id="qRRw0WlQvLEIwjKUzvwP-69" value="" style="ellipse;whiteSpace=wrap;html=1;aspect=fixed;" parent="1" vertex="1">
          <mxGeometry x="560" y="800" width="40" height="40" as="geometry" />
        </mxCell>
        <mxCell id="qRRw0WlQvLEIwjKUzvwP-70" value="" style="ellipse;whiteSpace=wrap;html=1;aspect=fixed;" parent="1" vertex="1">
          <mxGeometry x="600" y="800" width="40" height="40" as="geometry" />
        </mxCell>
        <mxCell id="qRRw0WlQvLEIwjKUzvwP-71" value="" style="ellipse;whiteSpace=wrap;html=1;aspect=fixed;" parent="1" vertex="1">
          <mxGeometry x="820" y="560" width="40" height="40" as="geometry" />
        </mxCell>
        <mxCell id="qRRw0WlQvLEIwjKUzvwP-72" value="" style="ellipse;whiteSpace=wrap;html=1;aspect=fixed;" parent="1" vertex="1">
          <mxGeometry x="740" y="640" width="40" height="40" as="geometry" />
        </mxCell>
        <mxCell id="qRRw0WlQvLEIwjKUzvwP-73" value="" style="ellipse;whiteSpace=wrap;html=1;aspect=fixed;" parent="1" vertex="1">
          <mxGeometry x="700" y="720" width="40" height="40" as="geometry" />
        </mxCell>
        <mxCell id="qRRw0WlQvLEIwjKUzvwP-74" value="" style="ellipse;whiteSpace=wrap;html=1;aspect=fixed;" parent="1" vertex="1">
          <mxGeometry x="780" y="720" width="40" height="40" as="geometry" />
        </mxCell>
        <mxCell id="qRRw0WlQvLEIwjKUzvwP-75" value="" style="ellipse;whiteSpace=wrap;html=1;aspect=fixed;" parent="1" vertex="1">
          <mxGeometry x="960" y="800" width="40" height="40" as="geometry" />
        </mxCell>
        <mxCell id="qRRw0WlQvLEIwjKUzvwP-76" value="" style="ellipse;whiteSpace=wrap;html=1;aspect=fixed;" parent="1" vertex="1">
          <mxGeometry x="900" y="640" width="40" height="40" as="geometry" />
        </mxCell>
        <mxCell id="qRRw0WlQvLEIwjKUzvwP-77" value="" style="ellipse;whiteSpace=wrap;html=1;aspect=fixed;" parent="1" vertex="1">
          <mxGeometry x="860" y="720" width="40" height="40" as="geometry" />
        </mxCell>
        <mxCell id="qRRw0WlQvLEIwjKUzvwP-78" value="" style="ellipse;whiteSpace=wrap;html=1;aspect=fixed;" parent="1" vertex="1">
          <mxGeometry x="940" y="720" width="40" height="40" as="geometry" />
        </mxCell>
        <mxCell id="qRRw0WlQvLEIwjKUzvwP-79" value="" style="endArrow=none;html=1;rounded=0;" parent="1" source="qRRw0WlQvLEIwjKUzvwP-72" target="qRRw0WlQvLEIwjKUzvwP-71" edge="1">
          <mxGeometry width="50" height="50" relative="1" as="geometry">
            <mxPoint x="780" y="520" as="sourcePoint" />
            <mxPoint x="830" y="470" as="targetPoint" />
          </mxGeometry>
        </mxCell>
        <mxCell id="qRRw0WlQvLEIwjKUzvwP-80" value="" style="endArrow=none;html=1;rounded=0;" parent="1" source="qRRw0WlQvLEIwjKUzvwP-71" target="qRRw0WlQvLEIwjKUzvwP-76" edge="1">
          <mxGeometry width="50" height="50" relative="1" as="geometry">
            <mxPoint x="920.11" y="572.06" as="sourcePoint" />
            <mxPoint x="964.11" y="550.06" as="targetPoint" />
          </mxGeometry>
        </mxCell>
        <mxCell id="qRRw0WlQvLEIwjKUzvwP-81" value="" style="endArrow=none;html=1;rounded=0;" parent="1" source="qRRw0WlQvLEIwjKUzvwP-73" target="qRRw0WlQvLEIwjKUzvwP-72" edge="1">
          <mxGeometry width="50" height="50" relative="1" as="geometry">
            <mxPoint x="660.11" y="630.06" as="sourcePoint" />
            <mxPoint x="704.11" y="652.06" as="targetPoint" />
          </mxGeometry>
        </mxCell>
        <mxCell id="qRRw0WlQvLEIwjKUzvwP-82" value="" style="endArrow=none;html=1;rounded=0;" parent="1" source="qRRw0WlQvLEIwjKUzvwP-74" target="qRRw0WlQvLEIwjKUzvwP-72" edge="1">
          <mxGeometry width="50" height="50" relative="1" as="geometry">
            <mxPoint x="828.14" y="666" as="sourcePoint" />
            <mxPoint x="840.14" y="654" as="targetPoint" />
          </mxGeometry>
        </mxCell>
        <mxCell id="qRRw0WlQvLEIwjKUzvwP-83" value="" style="endArrow=none;html=1;rounded=0;" parent="1" source="qRRw0WlQvLEIwjKUzvwP-77" target="qRRw0WlQvLEIwjKUzvwP-76" edge="1">
          <mxGeometry width="50" height="50" relative="1" as="geometry">
            <mxPoint x="841.86" y="666" as="sourcePoint" />
            <mxPoint x="829.86" y="654" as="targetPoint" />
          </mxGeometry>
        </mxCell>
        <mxCell id="qRRw0WlQvLEIwjKUzvwP-84" value="" style="endArrow=none;html=1;rounded=0;" parent="1" source="qRRw0WlQvLEIwjKUzvwP-76" target="qRRw0WlQvLEIwjKUzvwP-78" edge="1">
          <mxGeometry width="50" height="50" relative="1" as="geometry">
            <mxPoint x="979.86" y="666" as="sourcePoint" />
            <mxPoint x="991.86" y="654" as="targetPoint" />
          </mxGeometry>
        </mxCell>
        <mxCell id="qRRw0WlQvLEIwjKUzvwP-85" value="" style="endArrow=none;html=1;rounded=0;" parent="1" source="qRRw0WlQvLEIwjKUzvwP-93" target="qRRw0WlQvLEIwjKUzvwP-73" edge="1">
          <mxGeometry width="50" height="50" relative="1" as="geometry">
            <mxPoint x="708.9442719099789" y="762.1114561800428" as="sourcePoint" />
            <mxPoint x="664.11" y="720.06" as="targetPoint" />
          </mxGeometry>
        </mxCell>
        <mxCell id="qRRw0WlQvLEIwjKUzvwP-86" value="" style="endArrow=none;html=1;rounded=0;" parent="1" source="qRRw0WlQvLEIwjKUzvwP-94" target="qRRw0WlQvLEIwjKUzvwP-73" edge="1">
          <mxGeometry width="50" height="50" relative="1" as="geometry">
            <mxPoint x="731.0557280900007" y="762.1114561800014" as="sourcePoint" />
            <mxPoint x="778" y="738" as="targetPoint" />
          </mxGeometry>
        </mxCell>
        <mxCell id="qRRw0WlQvLEIwjKUzvwP-87" value="" style="endArrow=none;html=1;rounded=0;" parent="1" source="qRRw0WlQvLEIwjKUzvwP-95" target="qRRw0WlQvLEIwjKUzvwP-74" edge="1">
          <mxGeometry width="50" height="50" relative="1" as="geometry">
            <mxPoint x="788.9442719099991" y="762.111456180002" as="sourcePoint" />
            <mxPoint x="830" y="830" as="targetPoint" />
          </mxGeometry>
        </mxCell>
        <mxCell id="qRRw0WlQvLEIwjKUzvwP-88" value="" style="endArrow=none;html=1;rounded=0;" parent="1" source="qRRw0WlQvLEIwjKUzvwP-96" target="qRRw0WlQvLEIwjKUzvwP-74" edge="1">
          <mxGeometry width="50" height="50" relative="1" as="geometry">
            <mxPoint x="811.0557280900007" y="762.1114561800014" as="sourcePoint" />
            <mxPoint x="794" y="830" as="targetPoint" />
          </mxGeometry>
        </mxCell>
        <mxCell id="qRRw0WlQvLEIwjKUzvwP-89" value="" style="endArrow=none;html=1;rounded=0;" parent="1" source="qRRw0WlQvLEIwjKUzvwP-97" target="qRRw0WlQvLEIwjKUzvwP-77" edge="1">
          <mxGeometry width="50" height="50" relative="1" as="geometry">
            <mxPoint x="868.9442719099991" y="762.111456180002" as="sourcePoint" />
            <mxPoint x="844" y="830" as="targetPoint" />
          </mxGeometry>
        </mxCell>
        <mxCell id="qRRw0WlQvLEIwjKUzvwP-90" value="" style="endArrow=none;html=1;rounded=0;" parent="1" source="qRRw0WlQvLEIwjKUzvwP-98" target="qRRw0WlQvLEIwjKUzvwP-77" edge="1">
          <mxGeometry width="50" height="50" relative="1" as="geometry">
            <mxPoint x="891.0557280900211" y="762.1114561800423" as="sourcePoint" />
            <mxPoint x="840" y="830" as="targetPoint" />
          </mxGeometry>
        </mxCell>
        <mxCell id="qRRw0WlQvLEIwjKUzvwP-91" value="" style="endArrow=none;html=1;rounded=0;" parent="1" source="qRRw0WlQvLEIwjKUzvwP-99" target="qRRw0WlQvLEIwjKUzvwP-78" edge="1">
          <mxGeometry width="50" height="50" relative="1" as="geometry">
            <mxPoint x="948.9442719099991" y="762.111456180002" as="sourcePoint" />
            <mxPoint x="884" y="830" as="targetPoint" />
          </mxGeometry>
        </mxCell>
        <mxCell id="qRRw0WlQvLEIwjKUzvwP-92" value="" style="endArrow=none;html=1;rounded=0;" parent="1" source="qRRw0WlQvLEIwjKUzvwP-75" target="qRRw0WlQvLEIwjKUzvwP-78" edge="1">
          <mxGeometry width="50" height="50" relative="1" as="geometry">
            <mxPoint x="836" y="842" as="sourcePoint" />
            <mxPoint x="880" y="820" as="targetPoint" />
          </mxGeometry>
        </mxCell>
        <mxCell id="qRRw0WlQvLEIwjKUzvwP-93" value="" style="ellipse;whiteSpace=wrap;html=1;aspect=fixed;" parent="1" vertex="1">
          <mxGeometry x="680" y="800" width="40" height="40" as="geometry" />
        </mxCell>
        <mxCell id="qRRw0WlQvLEIwjKUzvwP-94" value="" style="ellipse;whiteSpace=wrap;html=1;aspect=fixed;" parent="1" vertex="1">
          <mxGeometry x="720" y="800" width="40" height="40" as="geometry" />
        </mxCell>
        <mxCell id="qRRw0WlQvLEIwjKUzvwP-95" value="" style="ellipse;whiteSpace=wrap;html=1;aspect=fixed;" parent="1" vertex="1">
          <mxGeometry x="760" y="800" width="40" height="40" as="geometry" />
        </mxCell>
        <mxCell id="qRRw0WlQvLEIwjKUzvwP-96" value="" style="ellipse;whiteSpace=wrap;html=1;aspect=fixed;" parent="1" vertex="1">
          <mxGeometry x="800" y="800" width="40" height="40" as="geometry" />
        </mxCell>
        <mxCell id="qRRw0WlQvLEIwjKUzvwP-97" value="" style="ellipse;whiteSpace=wrap;html=1;aspect=fixed;" parent="1" vertex="1">
          <mxGeometry x="840" y="800" width="40" height="40" as="geometry" />
        </mxCell>
        <mxCell id="qRRw0WlQvLEIwjKUzvwP-98" value="" style="ellipse;whiteSpace=wrap;html=1;aspect=fixed;" parent="1" vertex="1">
          <mxGeometry x="880" y="800" width="40" height="40" as="geometry" />
        </mxCell>
        <mxCell id="qRRw0WlQvLEIwjKUzvwP-99" value="" style="ellipse;whiteSpace=wrap;html=1;aspect=fixed;" parent="1" vertex="1">
          <mxGeometry x="920" y="800" width="40" height="40" as="geometry" />
        </mxCell>
        <mxCell id="qRRw0WlQvLEIwjKUzvwP-100" value="" style="ellipse;whiteSpace=wrap;html=1;aspect=fixed;" parent="1" vertex="1">
          <mxGeometry x="660" y="480" width="40" height="40" as="geometry" />
        </mxCell>
        <mxCell id="qRRw0WlQvLEIwjKUzvwP-101" value="" style="endArrow=none;html=1;rounded=0;" parent="1" source="qRRw0WlQvLEIwjKUzvwP-22" target="qRRw0WlQvLEIwjKUzvwP-100" edge="1">
          <mxGeometry width="50" height="50" relative="1" as="geometry">
            <mxPoint x="594" y="559.86" as="sourcePoint" />
            <mxPoint x="646" y="611.86" as="targetPoint" />
          </mxGeometry>
        </mxCell>
        <mxCell id="qRRw0WlQvLEIwjKUzvwP-102" value="" style="endArrow=none;html=1;rounded=0;" parent="1" source="qRRw0WlQvLEIwjKUzvwP-100" target="qRRw0WlQvLEIwjKUzvwP-71" edge="1">
          <mxGeometry width="50" height="50" relative="1" as="geometry">
            <mxPoint x="780.11" y="559.94" as="sourcePoint" />
            <mxPoint x="904.11" y="497.94" as="targetPoint" />
          </mxGeometry>
        </mxCell>
        <mxCell id="qRRw0WlQvLEIwjKUzvwP-103" value="" style="ellipse;whiteSpace=wrap;html=1;aspect=fixed;" parent="1" vertex="1">
          <mxGeometry x="-220" y="400" width="40" height="40" as="geometry" />
        </mxCell>
        <mxCell id="qRRw0WlQvLEIwjKUzvwP-104" value="" style="ellipse;whiteSpace=wrap;html=1;aspect=fixed;" parent="1" vertex="1">
          <mxGeometry x="-300" y="480" width="40" height="40" as="geometry" />
        </mxCell>
        <mxCell id="qRRw0WlQvLEIwjKUzvwP-105" value="" style="ellipse;whiteSpace=wrap;html=1;aspect=fixed;" parent="1" vertex="1">
          <mxGeometry x="-340" y="560" width="40" height="40" as="geometry" />
        </mxCell>
        <mxCell id="qRRw0WlQvLEIwjKUzvwP-106" value="" style="ellipse;whiteSpace=wrap;html=1;aspect=fixed;" parent="1" vertex="1">
          <mxGeometry x="-260" y="560" width="40" height="40" as="geometry" />
        </mxCell>
        <mxCell id="qRRw0WlQvLEIwjKUzvwP-107" value="" style="ellipse;whiteSpace=wrap;html=1;aspect=fixed;" parent="1" vertex="1">
          <mxGeometry x="-80" y="640" width="40" height="40" as="geometry" />
        </mxCell>
        <mxCell id="qRRw0WlQvLEIwjKUzvwP-108" value="" style="ellipse;whiteSpace=wrap;html=1;aspect=fixed;" parent="1" vertex="1">
          <mxGeometry x="-140" y="480" width="40" height="40" as="geometry" />
        </mxCell>
        <mxCell id="qRRw0WlQvLEIwjKUzvwP-109" value="" style="ellipse;whiteSpace=wrap;html=1;aspect=fixed;" parent="1" vertex="1">
          <mxGeometry x="-180" y="560" width="40" height="40" as="geometry" />
        </mxCell>
        <mxCell id="qRRw0WlQvLEIwjKUzvwP-110" value="" style="ellipse;whiteSpace=wrap;html=1;aspect=fixed;" parent="1" vertex="1">
          <mxGeometry x="-100" y="560" width="40" height="40" as="geometry" />
        </mxCell>
        <mxCell id="qRRw0WlQvLEIwjKUzvwP-111" value="" style="endArrow=none;html=1;rounded=0;" parent="1" source="qRRw0WlQvLEIwjKUzvwP-104" target="qRRw0WlQvLEIwjKUzvwP-103" edge="1">
          <mxGeometry width="50" height="50" relative="1" as="geometry">
            <mxPoint x="-260" y="360" as="sourcePoint" />
            <mxPoint x="-210" y="310" as="targetPoint" />
          </mxGeometry>
        </mxCell>
        <mxCell id="qRRw0WlQvLEIwjKUzvwP-112" value="" style="endArrow=none;html=1;rounded=0;" parent="1" source="qRRw0WlQvLEIwjKUzvwP-103" target="qRRw0WlQvLEIwjKUzvwP-108" edge="1">
          <mxGeometry width="50" height="50" relative="1" as="geometry">
            <mxPoint x="-119.88999999999999" y="412.05999999999995" as="sourcePoint" />
            <mxPoint x="-75.88999999999999" y="390.05999999999995" as="targetPoint" />
          </mxGeometry>
        </mxCell>
        <mxCell id="qRRw0WlQvLEIwjKUzvwP-113" value="" style="endArrow=none;html=1;rounded=0;" parent="1" source="qRRw0WlQvLEIwjKUzvwP-105" target="qRRw0WlQvLEIwjKUzvwP-104" edge="1">
          <mxGeometry width="50" height="50" relative="1" as="geometry">
            <mxPoint x="-379.89" y="470.05999999999995" as="sourcePoint" />
            <mxPoint x="-335.89" y="492.05999999999995" as="targetPoint" />
          </mxGeometry>
        </mxCell>
        <mxCell id="qRRw0WlQvLEIwjKUzvwP-114" value="" style="endArrow=none;html=1;rounded=0;" parent="1" source="qRRw0WlQvLEIwjKUzvwP-106" target="qRRw0WlQvLEIwjKUzvwP-104" edge="1">
          <mxGeometry width="50" height="50" relative="1" as="geometry">
            <mxPoint x="-211.86" y="506" as="sourcePoint" />
            <mxPoint x="-199.86" y="494" as="targetPoint" />
          </mxGeometry>
        </mxCell>
        <mxCell id="qRRw0WlQvLEIwjKUzvwP-115" value="" style="endArrow=none;html=1;rounded=0;" parent="1" source="qRRw0WlQvLEIwjKUzvwP-109" target="qRRw0WlQvLEIwjKUzvwP-108" edge="1">
          <mxGeometry width="50" height="50" relative="1" as="geometry">
            <mxPoint x="-198.14" y="506" as="sourcePoint" />
            <mxPoint x="-210.14" y="494" as="targetPoint" />
          </mxGeometry>
        </mxCell>
        <mxCell id="qRRw0WlQvLEIwjKUzvwP-116" value="" style="endArrow=none;html=1;rounded=0;" parent="1" source="qRRw0WlQvLEIwjKUzvwP-108" target="qRRw0WlQvLEIwjKUzvwP-110" edge="1">
          <mxGeometry width="50" height="50" relative="1" as="geometry">
            <mxPoint x="-60.139999999999986" y="506" as="sourcePoint" />
            <mxPoint x="-48.139999999999986" y="494" as="targetPoint" />
          </mxGeometry>
        </mxCell>
        <mxCell id="qRRw0WlQvLEIwjKUzvwP-117" value="" style="endArrow=none;html=1;rounded=0;" parent="1" source="qRRw0WlQvLEIwjKUzvwP-125" target="qRRw0WlQvLEIwjKUzvwP-105" edge="1">
          <mxGeometry width="50" height="50" relative="1" as="geometry">
            <mxPoint x="-331.05572809002115" y="602.1114561800428" as="sourcePoint" />
            <mxPoint x="-375.89" y="560.06" as="targetPoint" />
          </mxGeometry>
        </mxCell>
        <mxCell id="qRRw0WlQvLEIwjKUzvwP-118" value="" style="endArrow=none;html=1;rounded=0;" parent="1" source="qRRw0WlQvLEIwjKUzvwP-126" target="qRRw0WlQvLEIwjKUzvwP-105" edge="1">
          <mxGeometry width="50" height="50" relative="1" as="geometry">
            <mxPoint x="-308.9442719099993" y="602.1114561800014" as="sourcePoint" />
            <mxPoint x="-262" y="578" as="targetPoint" />
          </mxGeometry>
        </mxCell>
        <mxCell id="qRRw0WlQvLEIwjKUzvwP-119" value="" style="endArrow=none;html=1;rounded=0;" parent="1" source="qRRw0WlQvLEIwjKUzvwP-127" target="qRRw0WlQvLEIwjKUzvwP-106" edge="1">
          <mxGeometry width="50" height="50" relative="1" as="geometry">
            <mxPoint x="-251.0557280900009" y="602.111456180002" as="sourcePoint" />
            <mxPoint x="-210" y="670" as="targetPoint" />
          </mxGeometry>
        </mxCell>
        <mxCell id="qRRw0WlQvLEIwjKUzvwP-120" value="" style="endArrow=none;html=1;rounded=0;" parent="1" source="qRRw0WlQvLEIwjKUzvwP-128" target="qRRw0WlQvLEIwjKUzvwP-106" edge="1">
          <mxGeometry width="50" height="50" relative="1" as="geometry">
            <mxPoint x="-228.94427190999932" y="602.1114561800014" as="sourcePoint" />
            <mxPoint x="-246" y="670" as="targetPoint" />
          </mxGeometry>
        </mxCell>
        <mxCell id="qRRw0WlQvLEIwjKUzvwP-121" value="" style="endArrow=none;html=1;rounded=0;" parent="1" source="qRRw0WlQvLEIwjKUzvwP-129" target="qRRw0WlQvLEIwjKUzvwP-109" edge="1">
          <mxGeometry width="50" height="50" relative="1" as="geometry">
            <mxPoint x="-171.0557280900009" y="602.111456180002" as="sourcePoint" />
            <mxPoint x="-196" y="670" as="targetPoint" />
          </mxGeometry>
        </mxCell>
        <mxCell id="qRRw0WlQvLEIwjKUzvwP-122" value="" style="endArrow=none;html=1;rounded=0;" parent="1" source="qRRw0WlQvLEIwjKUzvwP-130" target="qRRw0WlQvLEIwjKUzvwP-109" edge="1">
          <mxGeometry width="50" height="50" relative="1" as="geometry">
            <mxPoint x="-148.94427190997885" y="602.1114561800423" as="sourcePoint" />
            <mxPoint x="-200" y="670" as="targetPoint" />
          </mxGeometry>
        </mxCell>
        <mxCell id="qRRw0WlQvLEIwjKUzvwP-123" value="" style="endArrow=none;html=1;rounded=0;" parent="1" source="qRRw0WlQvLEIwjKUzvwP-131" target="qRRw0WlQvLEIwjKUzvwP-110" edge="1">
          <mxGeometry width="50" height="50" relative="1" as="geometry">
            <mxPoint x="-91.05572809000091" y="602.111456180002" as="sourcePoint" />
            <mxPoint x="-156" y="670" as="targetPoint" />
          </mxGeometry>
        </mxCell>
        <mxCell id="qRRw0WlQvLEIwjKUzvwP-124" value="" style="endArrow=none;html=1;rounded=0;" parent="1" source="qRRw0WlQvLEIwjKUzvwP-107" target="qRRw0WlQvLEIwjKUzvwP-110" edge="1">
          <mxGeometry width="50" height="50" relative="1" as="geometry">
            <mxPoint x="-204" y="682" as="sourcePoint" />
            <mxPoint x="-160" y="660" as="targetPoint" />
          </mxGeometry>
        </mxCell>
        <mxCell id="qRRw0WlQvLEIwjKUzvwP-125" value="" style="ellipse;whiteSpace=wrap;html=1;aspect=fixed;" parent="1" vertex="1">
          <mxGeometry x="-360" y="640" width="40" height="40" as="geometry" />
        </mxCell>
        <mxCell id="qRRw0WlQvLEIwjKUzvwP-126" value="" style="ellipse;whiteSpace=wrap;html=1;aspect=fixed;" parent="1" vertex="1">
          <mxGeometry x="-320" y="640" width="40" height="40" as="geometry" />
        </mxCell>
        <mxCell id="qRRw0WlQvLEIwjKUzvwP-127" value="" style="ellipse;whiteSpace=wrap;html=1;aspect=fixed;" parent="1" vertex="1">
          <mxGeometry x="-280" y="640" width="40" height="40" as="geometry" />
        </mxCell>
        <mxCell id="qRRw0WlQvLEIwjKUzvwP-128" value="" style="ellipse;whiteSpace=wrap;html=1;aspect=fixed;" parent="1" vertex="1">
          <mxGeometry x="-240" y="640" width="40" height="40" as="geometry" />
        </mxCell>
        <mxCell id="qRRw0WlQvLEIwjKUzvwP-129" value="" style="ellipse;whiteSpace=wrap;html=1;aspect=fixed;" parent="1" vertex="1">
          <mxGeometry x="-200" y="640" width="40" height="40" as="geometry" />
        </mxCell>
        <mxCell id="qRRw0WlQvLEIwjKUzvwP-130" value="" style="ellipse;whiteSpace=wrap;html=1;aspect=fixed;" parent="1" vertex="1">
          <mxGeometry x="-160" y="640" width="40" height="40" as="geometry" />
        </mxCell>
        <mxCell id="qRRw0WlQvLEIwjKUzvwP-131" value="" style="ellipse;whiteSpace=wrap;html=1;aspect=fixed;" parent="1" vertex="1">
          <mxGeometry x="-120" y="640" width="40" height="40" as="geometry" />
        </mxCell>
        <mxCell id="qRRw0WlQvLEIwjKUzvwP-148" value="" style="ellipse;whiteSpace=wrap;html=1;aspect=fixed;" parent="1" vertex="1">
          <mxGeometry x="430" y="1090" width="40" height="40" as="geometry" />
        </mxCell>
        <mxCell id="qRRw0WlQvLEIwjKUzvwP-149" value="" style="ellipse;whiteSpace=wrap;html=1;aspect=fixed;" parent="1" vertex="1">
          <mxGeometry x="270" y="1170" width="40" height="40" as="geometry" />
        </mxCell>
        <mxCell id="qRRw0WlQvLEIwjKUzvwP-150" value="" style="ellipse;whiteSpace=wrap;html=1;aspect=fixed;" parent="1" vertex="1">
          <mxGeometry x="190" y="1250" width="40" height="40" as="geometry" />
        </mxCell>
        <mxCell id="qRRw0WlQvLEIwjKUzvwP-151" value="" style="ellipse;whiteSpace=wrap;html=1;aspect=fixed;" parent="1" vertex="1">
          <mxGeometry x="350" y="1250" width="40" height="40" as="geometry" />
        </mxCell>
        <mxCell id="qRRw0WlQvLEIwjKUzvwP-152" value="" style="ellipse;whiteSpace=wrap;html=1;aspect=fixed;" parent="1" vertex="1">
          <mxGeometry x="710" y="1330" width="40" height="40" as="geometry" />
        </mxCell>
        <mxCell id="qRRw0WlQvLEIwjKUzvwP-153" value="" style="ellipse;whiteSpace=wrap;html=1;aspect=fixed;" parent="1" vertex="1">
          <mxGeometry x="590" y="1170" width="40" height="40" as="geometry" />
        </mxCell>
        <mxCell id="qRRw0WlQvLEIwjKUzvwP-154" value="" style="ellipse;whiteSpace=wrap;html=1;aspect=fixed;" parent="1" vertex="1">
          <mxGeometry x="510" y="1250" width="40" height="40" as="geometry" />
        </mxCell>
        <mxCell id="qRRw0WlQvLEIwjKUzvwP-155" value="" style="ellipse;whiteSpace=wrap;html=1;aspect=fixed;" parent="1" vertex="1">
          <mxGeometry x="670" y="1250" width="40" height="40" as="geometry" />
        </mxCell>
        <mxCell id="qRRw0WlQvLEIwjKUzvwP-156" value="" style="endArrow=none;html=1;rounded=0;" parent="1" source="qRRw0WlQvLEIwjKUzvwP-149" target="qRRw0WlQvLEIwjKUzvwP-148" edge="1">
          <mxGeometry width="50" height="50" relative="1" as="geometry">
            <mxPoint x="370" y="1050" as="sourcePoint" />
            <mxPoint x="420" y="1000" as="targetPoint" />
          </mxGeometry>
        </mxCell>
        <mxCell id="qRRw0WlQvLEIwjKUzvwP-157" value="" style="endArrow=none;html=1;rounded=0;" parent="1" source="qRRw0WlQvLEIwjKUzvwP-148" target="qRRw0WlQvLEIwjKUzvwP-153" edge="1">
          <mxGeometry width="50" height="50" relative="1" as="geometry">
            <mxPoint x="510.11" y="1102.06" as="sourcePoint" />
            <mxPoint x="554.11" y="1080.06" as="targetPoint" />
          </mxGeometry>
        </mxCell>
        <mxCell id="qRRw0WlQvLEIwjKUzvwP-158" value="" style="endArrow=none;html=1;rounded=0;" parent="1" source="qRRw0WlQvLEIwjKUzvwP-150" target="qRRw0WlQvLEIwjKUzvwP-149" edge="1">
          <mxGeometry width="50" height="50" relative="1" as="geometry">
            <mxPoint x="250.11" y="1160.06" as="sourcePoint" />
            <mxPoint x="294.11" y="1182.06" as="targetPoint" />
          </mxGeometry>
        </mxCell>
        <mxCell id="qRRw0WlQvLEIwjKUzvwP-159" value="" style="endArrow=none;html=1;rounded=0;" parent="1" source="qRRw0WlQvLEIwjKUzvwP-151" target="qRRw0WlQvLEIwjKUzvwP-149" edge="1">
          <mxGeometry width="50" height="50" relative="1" as="geometry">
            <mxPoint x="418.14" y="1196" as="sourcePoint" />
            <mxPoint x="430.14" y="1184" as="targetPoint" />
          </mxGeometry>
        </mxCell>
        <mxCell id="qRRw0WlQvLEIwjKUzvwP-160" value="" style="endArrow=none;html=1;rounded=0;" parent="1" source="qRRw0WlQvLEIwjKUzvwP-154" target="qRRw0WlQvLEIwjKUzvwP-153" edge="1">
          <mxGeometry width="50" height="50" relative="1" as="geometry">
            <mxPoint x="431.86" y="1196" as="sourcePoint" />
            <mxPoint x="419.86" y="1184" as="targetPoint" />
          </mxGeometry>
        </mxCell>
        <mxCell id="qRRw0WlQvLEIwjKUzvwP-161" value="" style="endArrow=none;html=1;rounded=0;" parent="1" source="qRRw0WlQvLEIwjKUzvwP-153" target="qRRw0WlQvLEIwjKUzvwP-155" edge="1">
          <mxGeometry width="50" height="50" relative="1" as="geometry">
            <mxPoint x="569.86" y="1196" as="sourcePoint" />
            <mxPoint x="581.86" y="1184" as="targetPoint" />
          </mxGeometry>
        </mxCell>
        <mxCell id="qRRw0WlQvLEIwjKUzvwP-162" value="" style="endArrow=none;html=1;rounded=0;" parent="1" source="qRRw0WlQvLEIwjKUzvwP-170" target="qRRw0WlQvLEIwjKUzvwP-150" edge="1">
          <mxGeometry width="50" height="50" relative="1" as="geometry">
            <mxPoint x="298.94427190997885" y="1292.1114561800428" as="sourcePoint" />
            <mxPoint x="254.11" y="1250.06" as="targetPoint" />
          </mxGeometry>
        </mxCell>
        <mxCell id="qRRw0WlQvLEIwjKUzvwP-163" value="" style="endArrow=none;html=1;rounded=0;" parent="1" source="qRRw0WlQvLEIwjKUzvwP-171" target="qRRw0WlQvLEIwjKUzvwP-150" edge="1">
          <mxGeometry width="50" height="50" relative="1" as="geometry">
            <mxPoint x="321.0557280900007" y="1292.1114561800014" as="sourcePoint" />
            <mxPoint x="368" y="1268" as="targetPoint" />
          </mxGeometry>
        </mxCell>
        <mxCell id="qRRw0WlQvLEIwjKUzvwP-164" value="" style="endArrow=none;html=1;rounded=0;" parent="1" source="qRRw0WlQvLEIwjKUzvwP-172" target="qRRw0WlQvLEIwjKUzvwP-151" edge="1">
          <mxGeometry width="50" height="50" relative="1" as="geometry">
            <mxPoint x="378.9442719099991" y="1292.111456180002" as="sourcePoint" />
            <mxPoint x="420" y="1360" as="targetPoint" />
          </mxGeometry>
        </mxCell>
        <mxCell id="qRRw0WlQvLEIwjKUzvwP-165" value="" style="endArrow=none;html=1;rounded=0;" parent="1" source="qRRw0WlQvLEIwjKUzvwP-173" target="qRRw0WlQvLEIwjKUzvwP-151" edge="1">
          <mxGeometry width="50" height="50" relative="1" as="geometry">
            <mxPoint x="401.0557280900007" y="1292.1114561800014" as="sourcePoint" />
            <mxPoint x="384" y="1360" as="targetPoint" />
          </mxGeometry>
        </mxCell>
        <mxCell id="qRRw0WlQvLEIwjKUzvwP-166" value="" style="endArrow=none;html=1;rounded=0;" parent="1" source="qRRw0WlQvLEIwjKUzvwP-174" target="qRRw0WlQvLEIwjKUzvwP-154" edge="1">
          <mxGeometry width="50" height="50" relative="1" as="geometry">
            <mxPoint x="458.9442719099991" y="1292.111456180002" as="sourcePoint" />
            <mxPoint x="434" y="1360" as="targetPoint" />
          </mxGeometry>
        </mxCell>
        <mxCell id="qRRw0WlQvLEIwjKUzvwP-167" value="" style="endArrow=none;html=1;rounded=0;" parent="1" source="qRRw0WlQvLEIwjKUzvwP-175" target="qRRw0WlQvLEIwjKUzvwP-154" edge="1">
          <mxGeometry width="50" height="50" relative="1" as="geometry">
            <mxPoint x="481.05572809002115" y="1292.1114561800423" as="sourcePoint" />
            <mxPoint x="430" y="1360" as="targetPoint" />
          </mxGeometry>
        </mxCell>
        <mxCell id="qRRw0WlQvLEIwjKUzvwP-168" value="" style="endArrow=none;html=1;rounded=0;" parent="1" source="qRRw0WlQvLEIwjKUzvwP-176" target="qRRw0WlQvLEIwjKUzvwP-155" edge="1">
          <mxGeometry width="50" height="50" relative="1" as="geometry">
            <mxPoint x="538.9442719099991" y="1292.111456180002" as="sourcePoint" />
            <mxPoint x="474" y="1360" as="targetPoint" />
          </mxGeometry>
        </mxCell>
        <mxCell id="qRRw0WlQvLEIwjKUzvwP-169" value="" style="endArrow=none;html=1;rounded=0;" parent="1" source="qRRw0WlQvLEIwjKUzvwP-152" target="qRRw0WlQvLEIwjKUzvwP-155" edge="1">
          <mxGeometry width="50" height="50" relative="1" as="geometry">
            <mxPoint x="426" y="1372" as="sourcePoint" />
            <mxPoint x="470" y="1350" as="targetPoint" />
          </mxGeometry>
        </mxCell>
        <mxCell id="qRRw0WlQvLEIwjKUzvwP-170" value="" style="ellipse;whiteSpace=wrap;html=1;aspect=fixed;" parent="1" vertex="1">
          <mxGeometry x="150" y="1330" width="40" height="40" as="geometry" />
        </mxCell>
        <mxCell id="qRRw0WlQvLEIwjKUzvwP-171" value="" style="ellipse;whiteSpace=wrap;html=1;aspect=fixed;" parent="1" vertex="1">
          <mxGeometry x="230" y="1330" width="40" height="40" as="geometry" />
        </mxCell>
        <mxCell id="qRRw0WlQvLEIwjKUzvwP-172" value="" style="ellipse;whiteSpace=wrap;html=1;aspect=fixed;" parent="1" vertex="1">
          <mxGeometry x="310" y="1330" width="40" height="40" as="geometry" />
        </mxCell>
        <mxCell id="qRRw0WlQvLEIwjKUzvwP-173" value="" style="ellipse;whiteSpace=wrap;html=1;aspect=fixed;" parent="1" vertex="1">
          <mxGeometry x="390" y="1330" width="40" height="40" as="geometry" />
        </mxCell>
        <mxCell id="qRRw0WlQvLEIwjKUzvwP-174" value="" style="ellipse;whiteSpace=wrap;html=1;aspect=fixed;" parent="1" vertex="1">
          <mxGeometry x="470" y="1330" width="40" height="40" as="geometry" />
        </mxCell>
        <mxCell id="qRRw0WlQvLEIwjKUzvwP-175" value="" style="ellipse;whiteSpace=wrap;html=1;aspect=fixed;" parent="1" vertex="1">
          <mxGeometry x="550" y="1330" width="40" height="40" as="geometry" />
        </mxCell>
        <mxCell id="qRRw0WlQvLEIwjKUzvwP-176" value="" style="ellipse;whiteSpace=wrap;html=1;aspect=fixed;" parent="1" vertex="1">
          <mxGeometry x="630" y="1330" width="40" height="40" as="geometry" />
        </mxCell>
        <mxCell id="qRRw0WlQvLEIwjKUzvwP-210" value="" style="ellipse;whiteSpace=wrap;html=1;aspect=fixed;" parent="1" vertex="1">
          <mxGeometry x="1090" y="1090" width="40" height="40" as="geometry" />
        </mxCell>
        <mxCell id="qRRw0WlQvLEIwjKUzvwP-211" value="" style="ellipse;whiteSpace=wrap;html=1;aspect=fixed;" parent="1" vertex="1">
          <mxGeometry x="930" y="1170" width="40" height="40" as="geometry" />
        </mxCell>
        <mxCell id="qRRw0WlQvLEIwjKUzvwP-212" value="" style="ellipse;whiteSpace=wrap;html=1;aspect=fixed;" parent="1" vertex="1">
          <mxGeometry x="850" y="1250" width="40" height="40" as="geometry" />
        </mxCell>
        <mxCell id="qRRw0WlQvLEIwjKUzvwP-213" value="" style="ellipse;whiteSpace=wrap;html=1;aspect=fixed;" parent="1" vertex="1">
          <mxGeometry x="1010" y="1250" width="40" height="40" as="geometry" />
        </mxCell>
        <mxCell id="qRRw0WlQvLEIwjKUzvwP-214" value="" style="ellipse;whiteSpace=wrap;html=1;aspect=fixed;" parent="1" vertex="1">
          <mxGeometry x="1370" y="1330" width="40" height="40" as="geometry" />
        </mxCell>
        <mxCell id="qRRw0WlQvLEIwjKUzvwP-215" value="" style="ellipse;whiteSpace=wrap;html=1;aspect=fixed;" parent="1" vertex="1">
          <mxGeometry x="1250" y="1170" width="40" height="40" as="geometry" />
        </mxCell>
        <mxCell id="qRRw0WlQvLEIwjKUzvwP-216" value="" style="ellipse;whiteSpace=wrap;html=1;aspect=fixed;" parent="1" vertex="1">
          <mxGeometry x="1170" y="1250" width="40" height="40" as="geometry" />
        </mxCell>
        <mxCell id="qRRw0WlQvLEIwjKUzvwP-217" value="" style="ellipse;whiteSpace=wrap;html=1;aspect=fixed;" parent="1" vertex="1">
          <mxGeometry x="1330" y="1250" width="40" height="40" as="geometry" />
        </mxCell>
        <mxCell id="qRRw0WlQvLEIwjKUzvwP-218" value="" style="endArrow=none;html=1;rounded=0;" parent="1" source="qRRw0WlQvLEIwjKUzvwP-211" target="qRRw0WlQvLEIwjKUzvwP-210" edge="1">
          <mxGeometry width="50" height="50" relative="1" as="geometry">
            <mxPoint x="1030" y="1050" as="sourcePoint" />
            <mxPoint x="1080" y="1000" as="targetPoint" />
          </mxGeometry>
        </mxCell>
        <mxCell id="qRRw0WlQvLEIwjKUzvwP-219" value="" style="endArrow=none;html=1;rounded=0;" parent="1" source="qRRw0WlQvLEIwjKUzvwP-210" target="qRRw0WlQvLEIwjKUzvwP-215" edge="1">
          <mxGeometry width="50" height="50" relative="1" as="geometry">
            <mxPoint x="1170.1100000000001" y="1102.06" as="sourcePoint" />
            <mxPoint x="1214.1100000000001" y="1080.06" as="targetPoint" />
          </mxGeometry>
        </mxCell>
        <mxCell id="qRRw0WlQvLEIwjKUzvwP-220" value="" style="endArrow=none;html=1;rounded=0;" parent="1" source="qRRw0WlQvLEIwjKUzvwP-212" target="qRRw0WlQvLEIwjKUzvwP-211" edge="1">
          <mxGeometry width="50" height="50" relative="1" as="geometry">
            <mxPoint x="910.1100000000001" y="1160.06" as="sourcePoint" />
            <mxPoint x="954.1100000000001" y="1182.06" as="targetPoint" />
          </mxGeometry>
        </mxCell>
        <mxCell id="qRRw0WlQvLEIwjKUzvwP-221" value="" style="endArrow=none;html=1;rounded=0;" parent="1" source="qRRw0WlQvLEIwjKUzvwP-213" target="qRRw0WlQvLEIwjKUzvwP-211" edge="1">
          <mxGeometry width="50" height="50" relative="1" as="geometry">
            <mxPoint x="1078.1399999999999" y="1196" as="sourcePoint" />
            <mxPoint x="1090.1399999999999" y="1184" as="targetPoint" />
          </mxGeometry>
        </mxCell>
        <mxCell id="qRRw0WlQvLEIwjKUzvwP-222" value="" style="endArrow=none;html=1;rounded=0;" parent="1" source="qRRw0WlQvLEIwjKUzvwP-216" target="qRRw0WlQvLEIwjKUzvwP-215" edge="1">
          <mxGeometry width="50" height="50" relative="1" as="geometry">
            <mxPoint x="1091.8600000000001" y="1196" as="sourcePoint" />
            <mxPoint x="1079.8600000000001" y="1184" as="targetPoint" />
          </mxGeometry>
        </mxCell>
        <mxCell id="qRRw0WlQvLEIwjKUzvwP-223" value="" style="endArrow=none;html=1;rounded=0;" parent="1" source="qRRw0WlQvLEIwjKUzvwP-215" target="qRRw0WlQvLEIwjKUzvwP-217" edge="1">
          <mxGeometry width="50" height="50" relative="1" as="geometry">
            <mxPoint x="1229.8600000000001" y="1196" as="sourcePoint" />
            <mxPoint x="1241.8600000000001" y="1184" as="targetPoint" />
          </mxGeometry>
        </mxCell>
        <mxCell id="qRRw0WlQvLEIwjKUzvwP-224" value="" style="endArrow=none;html=1;rounded=0;" parent="1" source="qRRw0WlQvLEIwjKUzvwP-232" target="qRRw0WlQvLEIwjKUzvwP-212" edge="1">
          <mxGeometry width="50" height="50" relative="1" as="geometry">
            <mxPoint x="958.9442719099789" y="1292.1114561800428" as="sourcePoint" />
            <mxPoint x="914.1100000000001" y="1250.06" as="targetPoint" />
          </mxGeometry>
        </mxCell>
        <mxCell id="qRRw0WlQvLEIwjKUzvwP-225" value="" style="endArrow=none;html=1;rounded=0;" parent="1" source="qRRw0WlQvLEIwjKUzvwP-233" target="qRRw0WlQvLEIwjKUzvwP-212" edge="1">
          <mxGeometry width="50" height="50" relative="1" as="geometry">
            <mxPoint x="981.0557280900007" y="1292.1114561800014" as="sourcePoint" />
            <mxPoint x="1028" y="1268" as="targetPoint" />
          </mxGeometry>
        </mxCell>
        <mxCell id="qRRw0WlQvLEIwjKUzvwP-226" value="" style="endArrow=none;html=1;rounded=0;" parent="1" source="qRRw0WlQvLEIwjKUzvwP-234" target="qRRw0WlQvLEIwjKUzvwP-213" edge="1">
          <mxGeometry width="50" height="50" relative="1" as="geometry">
            <mxPoint x="1038.944271909999" y="1292.111456180002" as="sourcePoint" />
            <mxPoint x="1080" y="1360" as="targetPoint" />
          </mxGeometry>
        </mxCell>
        <mxCell id="qRRw0WlQvLEIwjKUzvwP-227" value="" style="endArrow=none;html=1;rounded=0;" parent="1" source="qRRw0WlQvLEIwjKUzvwP-235" target="qRRw0WlQvLEIwjKUzvwP-213" edge="1">
          <mxGeometry width="50" height="50" relative="1" as="geometry">
            <mxPoint x="1061.0557280900007" y="1292.1114561800014" as="sourcePoint" />
            <mxPoint x="1044" y="1360" as="targetPoint" />
          </mxGeometry>
        </mxCell>
        <mxCell id="qRRw0WlQvLEIwjKUzvwP-228" value="" style="endArrow=none;html=1;rounded=0;" parent="1" source="qRRw0WlQvLEIwjKUzvwP-236" target="qRRw0WlQvLEIwjKUzvwP-216" edge="1">
          <mxGeometry width="50" height="50" relative="1" as="geometry">
            <mxPoint x="1118.944271909999" y="1292.111456180002" as="sourcePoint" />
            <mxPoint x="1094" y="1360" as="targetPoint" />
          </mxGeometry>
        </mxCell>
        <mxCell id="qRRw0WlQvLEIwjKUzvwP-229" value="" style="endArrow=none;html=1;rounded=0;" parent="1" source="qRRw0WlQvLEIwjKUzvwP-237" target="qRRw0WlQvLEIwjKUzvwP-216" edge="1">
          <mxGeometry width="50" height="50" relative="1" as="geometry">
            <mxPoint x="1141.0557280900211" y="1292.1114561800423" as="sourcePoint" />
            <mxPoint x="1090" y="1360" as="targetPoint" />
          </mxGeometry>
        </mxCell>
        <mxCell id="qRRw0WlQvLEIwjKUzvwP-230" value="" style="endArrow=none;html=1;rounded=0;" parent="1" source="qRRw0WlQvLEIwjKUzvwP-238" target="qRRw0WlQvLEIwjKUzvwP-217" edge="1">
          <mxGeometry width="50" height="50" relative="1" as="geometry">
            <mxPoint x="1198.944271909999" y="1292.111456180002" as="sourcePoint" />
            <mxPoint x="1134" y="1360" as="targetPoint" />
          </mxGeometry>
        </mxCell>
        <mxCell id="qRRw0WlQvLEIwjKUzvwP-231" value="" style="endArrow=none;html=1;rounded=0;" parent="1" source="qRRw0WlQvLEIwjKUzvwP-214" target="qRRw0WlQvLEIwjKUzvwP-217" edge="1">
          <mxGeometry width="50" height="50" relative="1" as="geometry">
            <mxPoint x="1086" y="1372" as="sourcePoint" />
            <mxPoint x="1130" y="1350" as="targetPoint" />
          </mxGeometry>
        </mxCell>
        <mxCell id="qRRw0WlQvLEIwjKUzvwP-232" value="" style="ellipse;whiteSpace=wrap;html=1;aspect=fixed;" parent="1" vertex="1">
          <mxGeometry x="810" y="1330" width="40" height="40" as="geometry" />
        </mxCell>
        <mxCell id="qRRw0WlQvLEIwjKUzvwP-233" value="" style="ellipse;whiteSpace=wrap;html=1;aspect=fixed;" parent="1" vertex="1">
          <mxGeometry x="890" y="1330" width="40" height="40" as="geometry" />
        </mxCell>
        <mxCell id="qRRw0WlQvLEIwjKUzvwP-234" value="" style="ellipse;whiteSpace=wrap;html=1;aspect=fixed;" parent="1" vertex="1">
          <mxGeometry x="970" y="1330" width="40" height="40" as="geometry" />
        </mxCell>
        <mxCell id="qRRw0WlQvLEIwjKUzvwP-235" value="" style="ellipse;whiteSpace=wrap;html=1;aspect=fixed;" parent="1" vertex="1">
          <mxGeometry x="1050" y="1330" width="40" height="40" as="geometry" />
        </mxCell>
        <mxCell id="qRRw0WlQvLEIwjKUzvwP-236" value="" style="ellipse;whiteSpace=wrap;html=1;aspect=fixed;" parent="1" vertex="1">
          <mxGeometry x="1130" y="1330" width="40" height="40" as="geometry" />
        </mxCell>
        <mxCell id="qRRw0WlQvLEIwjKUzvwP-237" value="" style="ellipse;whiteSpace=wrap;html=1;aspect=fixed;" parent="1" vertex="1">
          <mxGeometry x="1210" y="1330" width="40" height="40" as="geometry" />
        </mxCell>
        <mxCell id="qRRw0WlQvLEIwjKUzvwP-238" value="" style="ellipse;whiteSpace=wrap;html=1;aspect=fixed;" parent="1" vertex="1">
          <mxGeometry x="1290" y="1330" width="40" height="40" as="geometry" />
        </mxCell>
        <mxCell id="qRRw0WlQvLEIwjKUzvwP-239" value="" style="ellipse;whiteSpace=wrap;html=1;aspect=fixed;" parent="1" vertex="1">
          <mxGeometry x="770" y="1010" width="40" height="40" as="geometry" />
        </mxCell>
        <mxCell id="qRRw0WlQvLEIwjKUzvwP-240" value="" style="endArrow=none;html=1;rounded=0;" parent="1" source="qRRw0WlQvLEIwjKUzvwP-148" target="qRRw0WlQvLEIwjKUzvwP-239" edge="1">
          <mxGeometry width="50" height="50" relative="1" as="geometry">
            <mxPoint x="525.89" y="910.06" as="sourcePoint" />
            <mxPoint x="649.89" y="972.06" as="targetPoint" />
          </mxGeometry>
        </mxCell>
        <mxCell id="qRRw0WlQvLEIwjKUzvwP-241" value="" style="endArrow=none;html=1;rounded=0;" parent="1" source="qRRw0WlQvLEIwjKUzvwP-239" target="qRRw0WlQvLEIwjKUzvwP-210" edge="1">
          <mxGeometry width="50" height="50" relative="1" as="geometry">
            <mxPoint x="770" y="898.31" as="sourcePoint" />
            <mxPoint x="1016.1100000000001" y="1010.25" as="targetPoint" />
          </mxGeometry>
        </mxCell>
        <mxCell id="qRRw0WlQvLEIwjKUzvwP-243" value="A" style="text;html=1;strokeColor=none;fillColor=none;align=center;verticalAlign=middle;whiteSpace=wrap;rounded=0;" parent="1" vertex="1">
          <mxGeometry x="-220" y="400" width="40" height="40" as="geometry" />
        </mxCell>
        <mxCell id="qRRw0WlQvLEIwjKUzvwP-244" value="B" style="text;html=1;strokeColor=none;fillColor=none;align=center;verticalAlign=middle;whiteSpace=wrap;rounded=0;" parent="1" vertex="1">
          <mxGeometry x="-300" y="480" width="40" height="40" as="geometry" />
        </mxCell>
        <mxCell id="qRRw0WlQvLEIwjKUzvwP-245" value="C" style="text;html=1;strokeColor=none;fillColor=none;align=center;verticalAlign=middle;whiteSpace=wrap;rounded=0;" parent="1" vertex="1">
          <mxGeometry x="-140" y="480" width="40" height="40" as="geometry" />
        </mxCell>
        <mxCell id="qRRw0WlQvLEIwjKUzvwP-246" value="D" style="text;html=1;strokeColor=none;fillColor=none;align=center;verticalAlign=middle;whiteSpace=wrap;rounded=0;" parent="1" vertex="1">
          <mxGeometry x="-340" y="560" width="40" height="40" as="geometry" />
        </mxCell>
        <mxCell id="qRRw0WlQvLEIwjKUzvwP-247" value="E" style="text;html=1;strokeColor=none;fillColor=none;align=center;verticalAlign=middle;whiteSpace=wrap;rounded=0;" parent="1" vertex="1">
          <mxGeometry x="-260" y="560" width="40" height="40" as="geometry" />
        </mxCell>
        <mxCell id="qRRw0WlQvLEIwjKUzvwP-248" value="F" style="text;html=1;strokeColor=none;fillColor=none;align=center;verticalAlign=middle;whiteSpace=wrap;rounded=0;" parent="1" vertex="1">
          <mxGeometry x="-180" y="560" width="40" height="40" as="geometry" />
        </mxCell>
        <mxCell id="qRRw0WlQvLEIwjKUzvwP-249" value="G" style="text;html=1;strokeColor=none;fillColor=none;align=center;verticalAlign=middle;whiteSpace=wrap;rounded=0;" parent="1" vertex="1">
          <mxGeometry x="-100" y="560" width="40" height="40" as="geometry" />
        </mxCell>
        <mxCell id="qRRw0WlQvLEIwjKUzvwP-250" value="H" style="text;html=1;strokeColor=none;fillColor=none;align=center;verticalAlign=middle;whiteSpace=wrap;rounded=0;" parent="1" vertex="1">
          <mxGeometry x="-360" y="640" width="40" height="40" as="geometry" />
        </mxCell>
        <mxCell id="qRRw0WlQvLEIwjKUzvwP-251" value="I" style="text;html=1;strokeColor=none;fillColor=none;align=center;verticalAlign=middle;whiteSpace=wrap;rounded=0;" parent="1" vertex="1">
          <mxGeometry x="-320" y="640" width="40" height="40" as="geometry" />
        </mxCell>
        <mxCell id="qRRw0WlQvLEIwjKUzvwP-252" value="J" style="text;html=1;strokeColor=none;fillColor=none;align=center;verticalAlign=middle;whiteSpace=wrap;rounded=0;" parent="1" vertex="1">
          <mxGeometry x="-280" y="640" width="40" height="40" as="geometry" />
        </mxCell>
        <mxCell id="qRRw0WlQvLEIwjKUzvwP-253" value="K" style="text;html=1;strokeColor=none;fillColor=none;align=center;verticalAlign=middle;whiteSpace=wrap;rounded=0;" parent="1" vertex="1">
          <mxGeometry x="-240" y="640" width="40" height="40" as="geometry" />
        </mxCell>
        <mxCell id="qRRw0WlQvLEIwjKUzvwP-254" value="L" style="text;html=1;strokeColor=none;fillColor=none;align=center;verticalAlign=middle;whiteSpace=wrap;rounded=0;" parent="1" vertex="1">
          <mxGeometry x="-200" y="640" width="40" height="40" as="geometry" />
        </mxCell>
        <mxCell id="qRRw0WlQvLEIwjKUzvwP-255" value="M" style="text;html=1;strokeColor=none;fillColor=none;align=center;verticalAlign=middle;whiteSpace=wrap;rounded=0;" parent="1" vertex="1">
          <mxGeometry x="-160" y="640" width="40" height="40" as="geometry" />
        </mxCell>
        <mxCell id="qRRw0WlQvLEIwjKUzvwP-256" value="N" style="text;html=1;strokeColor=none;fillColor=none;align=center;verticalAlign=middle;whiteSpace=wrap;rounded=0;" parent="1" vertex="1">
          <mxGeometry x="-120" y="640" width="40" height="40" as="geometry" />
        </mxCell>
        <mxCell id="qRRw0WlQvLEIwjKUzvwP-257" value="O" style="text;html=1;strokeColor=none;fillColor=none;align=center;verticalAlign=middle;whiteSpace=wrap;rounded=0;" parent="1" vertex="1">
          <mxGeometry x="-80" y="640" width="40" height="40" as="geometry" />
        </mxCell>
      </root>
    </mxGraphModel>
  </diagram>
  <diagram id="PxR_IiSEmDEZ3NAb0cRw" name="B_Tree">
    <mxGraphModel dx="2555" dy="983" grid="1" gridSize="10" guides="1" tooltips="1" connect="1" arrows="1" fold="1" page="1" pageScale="1" pageWidth="827" pageHeight="1169" math="0" shadow="0">
      <root>
        <mxCell id="0" />
        <mxCell id="1" parent="0" />
        <mxCell id="O2DiKnPmDoYQamAQj3y5-1" value="" style="group;fontFamily=Comic Sans MS;fontSize=19;" vertex="1" connectable="0" parent="1">
          <mxGeometry x="320" y="345" width="200" height="40" as="geometry" />
        </mxCell>
        <mxCell id="O2DiKnPmDoYQamAQj3y5-2" value="9" style="whiteSpace=wrap;html=1;aspect=fixed;fontFamily=Comic Sans MS;fontSize=19;" vertex="1" parent="O2DiKnPmDoYQamAQj3y5-1">
          <mxGeometry width="40" height="40" as="geometry" />
        </mxCell>
        <mxCell id="O2DiKnPmDoYQamAQj3y5-3" value="" style="whiteSpace=wrap;html=1;aspect=fixed;fontFamily=Comic Sans MS;fontSize=19;" vertex="1" parent="O2DiKnPmDoYQamAQj3y5-1">
          <mxGeometry x="40" width="40" height="40" as="geometry" />
        </mxCell>
        <mxCell id="O2DiKnPmDoYQamAQj3y5-4" value="" style="whiteSpace=wrap;html=1;aspect=fixed;fontFamily=Comic Sans MS;fontSize=19;" vertex="1" parent="O2DiKnPmDoYQamAQj3y5-1">
          <mxGeometry x="80" width="40" height="40" as="geometry" />
        </mxCell>
        <mxCell id="O2DiKnPmDoYQamAQj3y5-5" value="" style="whiteSpace=wrap;html=1;aspect=fixed;fontFamily=Comic Sans MS;fontSize=19;" vertex="1" parent="O2DiKnPmDoYQamAQj3y5-1">
          <mxGeometry x="120" width="40" height="40" as="geometry" />
        </mxCell>
        <mxCell id="O2DiKnPmDoYQamAQj3y5-6" value="" style="whiteSpace=wrap;html=1;aspect=fixed;fillColor=#d5e8d4;strokeColor=#82b366;fontFamily=Comic Sans MS;fontSize=19;" vertex="1" parent="O2DiKnPmDoYQamAQj3y5-1">
          <mxGeometry x="160" width="40" height="40" as="geometry" />
        </mxCell>
        <mxCell id="O2DiKnPmDoYQamAQj3y5-7" value="" style="group;fontFamily=Comic Sans MS;fontSize=19;" vertex="1" connectable="0" parent="1">
          <mxGeometry x="-40" y="425" width="200" height="40" as="geometry" />
        </mxCell>
        <mxCell id="O2DiKnPmDoYQamAQj3y5-8" value="3" style="whiteSpace=wrap;html=1;aspect=fixed;fontFamily=Comic Sans MS;fontSize=19;" vertex="1" parent="O2DiKnPmDoYQamAQj3y5-7">
          <mxGeometry width="40" height="40" as="geometry" />
        </mxCell>
        <mxCell id="O2DiKnPmDoYQamAQj3y5-9" value="6" style="whiteSpace=wrap;html=1;aspect=fixed;fontFamily=Comic Sans MS;fontSize=19;" vertex="1" parent="O2DiKnPmDoYQamAQj3y5-7">
          <mxGeometry x="40" width="40" height="40" as="geometry" />
        </mxCell>
        <mxCell id="O2DiKnPmDoYQamAQj3y5-10" value="" style="whiteSpace=wrap;html=1;aspect=fixed;fontFamily=Comic Sans MS;fontSize=19;" vertex="1" parent="O2DiKnPmDoYQamAQj3y5-7">
          <mxGeometry x="80" width="40" height="40" as="geometry" />
        </mxCell>
        <mxCell id="O2DiKnPmDoYQamAQj3y5-11" value="" style="whiteSpace=wrap;html=1;aspect=fixed;fontFamily=Comic Sans MS;fontSize=19;" vertex="1" parent="O2DiKnPmDoYQamAQj3y5-7">
          <mxGeometry x="120" width="40" height="40" as="geometry" />
        </mxCell>
        <mxCell id="O2DiKnPmDoYQamAQj3y5-12" value="" style="whiteSpace=wrap;html=1;aspect=fixed;fillColor=#d5e8d4;strokeColor=#82b366;fontFamily=Comic Sans MS;fontSize=19;" vertex="1" parent="O2DiKnPmDoYQamAQj3y5-7">
          <mxGeometry x="160" width="40" height="40" as="geometry" />
        </mxCell>
        <mxCell id="O2DiKnPmDoYQamAQj3y5-13" value="" style="group;fontFamily=Comic Sans MS;fontSize=19;" vertex="1" connectable="0" parent="1">
          <mxGeometry x="560" y="425" width="200" height="40" as="geometry" />
        </mxCell>
        <mxCell id="O2DiKnPmDoYQamAQj3y5-14" value="12" style="whiteSpace=wrap;html=1;aspect=fixed;fontFamily=Comic Sans MS;fontSize=19;" vertex="1" parent="O2DiKnPmDoYQamAQj3y5-13">
          <mxGeometry width="40" height="40" as="geometry" />
        </mxCell>
        <mxCell id="O2DiKnPmDoYQamAQj3y5-15" value="15" style="whiteSpace=wrap;html=1;aspect=fixed;fontFamily=Comic Sans MS;fontSize=19;" vertex="1" parent="O2DiKnPmDoYQamAQj3y5-13">
          <mxGeometry x="40" width="40" height="40" as="geometry" />
        </mxCell>
        <mxCell id="O2DiKnPmDoYQamAQj3y5-16" value="" style="whiteSpace=wrap;html=1;aspect=fixed;fontFamily=Comic Sans MS;fontSize=19;" vertex="1" parent="O2DiKnPmDoYQamAQj3y5-13">
          <mxGeometry x="80" width="40" height="40" as="geometry" />
        </mxCell>
        <mxCell id="O2DiKnPmDoYQamAQj3y5-17" value="" style="whiteSpace=wrap;html=1;aspect=fixed;fontFamily=Comic Sans MS;fontSize=19;" vertex="1" parent="O2DiKnPmDoYQamAQj3y5-13">
          <mxGeometry x="120" width="40" height="40" as="geometry" />
        </mxCell>
        <mxCell id="O2DiKnPmDoYQamAQj3y5-18" value="" style="whiteSpace=wrap;html=1;aspect=fixed;fillColor=#d5e8d4;strokeColor=#82b366;fontFamily=Comic Sans MS;fontSize=19;" vertex="1" parent="O2DiKnPmDoYQamAQj3y5-13">
          <mxGeometry x="160" width="40" height="40" as="geometry" />
        </mxCell>
        <mxCell id="O2DiKnPmDoYQamAQj3y5-19" value="" style="group;fontFamily=Comic Sans MS;fontSize=19;" vertex="1" connectable="0" parent="1">
          <mxGeometry x="-400" y="545" width="200" height="40" as="geometry" />
        </mxCell>
        <mxCell id="O2DiKnPmDoYQamAQj3y5-20" value="1" style="whiteSpace=wrap;html=1;aspect=fixed;fontFamily=Comic Sans MS;fontSize=19;" vertex="1" parent="O2DiKnPmDoYQamAQj3y5-19">
          <mxGeometry width="40" height="40" as="geometry" />
        </mxCell>
        <mxCell id="O2DiKnPmDoYQamAQj3y5-21" value="2" style="whiteSpace=wrap;html=1;aspect=fixed;fontFamily=Comic Sans MS;fontSize=19;" vertex="1" parent="O2DiKnPmDoYQamAQj3y5-19">
          <mxGeometry x="40" width="40" height="40" as="geometry" />
        </mxCell>
        <mxCell id="O2DiKnPmDoYQamAQj3y5-22" value="" style="whiteSpace=wrap;html=1;aspect=fixed;fontFamily=Comic Sans MS;fontSize=19;" vertex="1" parent="O2DiKnPmDoYQamAQj3y5-19">
          <mxGeometry x="80" width="40" height="40" as="geometry" />
        </mxCell>
        <mxCell id="O2DiKnPmDoYQamAQj3y5-23" value="" style="whiteSpace=wrap;html=1;aspect=fixed;fontFamily=Comic Sans MS;fontSize=19;" vertex="1" parent="O2DiKnPmDoYQamAQj3y5-19">
          <mxGeometry x="120" width="40" height="40" as="geometry" />
        </mxCell>
        <mxCell id="O2DiKnPmDoYQamAQj3y5-24" value="" style="whiteSpace=wrap;html=1;aspect=fixed;fillColor=#d5e8d4;strokeColor=#82b366;fontFamily=Comic Sans MS;fontSize=19;" vertex="1" parent="O2DiKnPmDoYQamAQj3y5-19">
          <mxGeometry x="160" width="40" height="40" as="geometry" />
        </mxCell>
        <mxCell id="O2DiKnPmDoYQamAQj3y5-25" value="" style="group;fontFamily=Comic Sans MS;fontSize=19;" vertex="1" connectable="0" parent="1">
          <mxGeometry x="-190" y="545" width="200" height="40" as="geometry" />
        </mxCell>
        <mxCell id="O2DiKnPmDoYQamAQj3y5-26" value="4" style="whiteSpace=wrap;html=1;aspect=fixed;fontFamily=Comic Sans MS;fontSize=19;" vertex="1" parent="O2DiKnPmDoYQamAQj3y5-25">
          <mxGeometry width="40" height="40" as="geometry" />
        </mxCell>
        <mxCell id="O2DiKnPmDoYQamAQj3y5-27" value="5" style="whiteSpace=wrap;html=1;aspect=fixed;fontFamily=Comic Sans MS;fontSize=19;" vertex="1" parent="O2DiKnPmDoYQamAQj3y5-25">
          <mxGeometry x="40" width="40" height="40" as="geometry" />
        </mxCell>
        <mxCell id="O2DiKnPmDoYQamAQj3y5-28" value="" style="whiteSpace=wrap;html=1;aspect=fixed;fontFamily=Comic Sans MS;fontSize=19;" vertex="1" parent="O2DiKnPmDoYQamAQj3y5-25">
          <mxGeometry x="80" width="40" height="40" as="geometry" />
        </mxCell>
        <mxCell id="O2DiKnPmDoYQamAQj3y5-29" value="" style="whiteSpace=wrap;html=1;aspect=fixed;fontFamily=Comic Sans MS;fontSize=19;" vertex="1" parent="O2DiKnPmDoYQamAQj3y5-25">
          <mxGeometry x="120" width="40" height="40" as="geometry" />
        </mxCell>
        <mxCell id="O2DiKnPmDoYQamAQj3y5-30" value="" style="whiteSpace=wrap;html=1;aspect=fixed;fillColor=#d5e8d4;strokeColor=#82b366;fontFamily=Comic Sans MS;fontSize=19;" vertex="1" parent="O2DiKnPmDoYQamAQj3y5-25">
          <mxGeometry x="160" width="40" height="40" as="geometry" />
        </mxCell>
        <mxCell id="O2DiKnPmDoYQamAQj3y5-31" value="" style="group;fontFamily=Comic Sans MS;fontSize=19;" vertex="1" connectable="0" parent="1">
          <mxGeometry x="20" y="545" width="200" height="40" as="geometry" />
        </mxCell>
        <mxCell id="O2DiKnPmDoYQamAQj3y5-32" value="7" style="whiteSpace=wrap;html=1;aspect=fixed;fontFamily=Comic Sans MS;fontSize=19;" vertex="1" parent="O2DiKnPmDoYQamAQj3y5-31">
          <mxGeometry width="40" height="40" as="geometry" />
        </mxCell>
        <mxCell id="O2DiKnPmDoYQamAQj3y5-33" value="8" style="whiteSpace=wrap;html=1;aspect=fixed;fontFamily=Comic Sans MS;fontSize=19;" vertex="1" parent="O2DiKnPmDoYQamAQj3y5-31">
          <mxGeometry x="40" width="40" height="40" as="geometry" />
        </mxCell>
        <mxCell id="O2DiKnPmDoYQamAQj3y5-34" value="" style="whiteSpace=wrap;html=1;aspect=fixed;fontFamily=Comic Sans MS;fontSize=19;" vertex="1" parent="O2DiKnPmDoYQamAQj3y5-31">
          <mxGeometry x="80" width="40" height="40" as="geometry" />
        </mxCell>
        <mxCell id="O2DiKnPmDoYQamAQj3y5-35" value="" style="whiteSpace=wrap;html=1;aspect=fixed;fontFamily=Comic Sans MS;fontSize=19;" vertex="1" parent="O2DiKnPmDoYQamAQj3y5-31">
          <mxGeometry x="120" width="40" height="40" as="geometry" />
        </mxCell>
        <mxCell id="O2DiKnPmDoYQamAQj3y5-36" value="" style="whiteSpace=wrap;html=1;aspect=fixed;fillColor=#d5e8d4;strokeColor=#82b366;fontFamily=Comic Sans MS;fontSize=19;" vertex="1" parent="O2DiKnPmDoYQamAQj3y5-31">
          <mxGeometry x="160" width="40" height="40" as="geometry" />
        </mxCell>
        <mxCell id="O2DiKnPmDoYQamAQj3y5-37" value="" style="group;fontFamily=Comic Sans MS;fontSize=19;" vertex="1" connectable="0" parent="1">
          <mxGeometry x="240" y="545" width="200" height="40" as="geometry" />
        </mxCell>
        <mxCell id="O2DiKnPmDoYQamAQj3y5-38" value="10" style="whiteSpace=wrap;html=1;aspect=fixed;fontFamily=Comic Sans MS;fontSize=19;" vertex="1" parent="O2DiKnPmDoYQamAQj3y5-37">
          <mxGeometry width="40" height="40" as="geometry" />
        </mxCell>
        <mxCell id="O2DiKnPmDoYQamAQj3y5-39" value="11" style="whiteSpace=wrap;html=1;aspect=fixed;fontFamily=Comic Sans MS;fontSize=19;" vertex="1" parent="O2DiKnPmDoYQamAQj3y5-37">
          <mxGeometry x="40" width="40" height="40" as="geometry" />
        </mxCell>
        <mxCell id="O2DiKnPmDoYQamAQj3y5-40" value="" style="whiteSpace=wrap;html=1;aspect=fixed;fontFamily=Comic Sans MS;fontSize=19;" vertex="1" parent="O2DiKnPmDoYQamAQj3y5-37">
          <mxGeometry x="80" width="40" height="40" as="geometry" />
        </mxCell>
        <mxCell id="O2DiKnPmDoYQamAQj3y5-41" value="" style="whiteSpace=wrap;html=1;aspect=fixed;fontFamily=Comic Sans MS;fontSize=19;" vertex="1" parent="O2DiKnPmDoYQamAQj3y5-37">
          <mxGeometry x="120" width="40" height="40" as="geometry" />
        </mxCell>
        <mxCell id="O2DiKnPmDoYQamAQj3y5-42" value="" style="whiteSpace=wrap;html=1;aspect=fixed;fillColor=#d5e8d4;strokeColor=#82b366;fontFamily=Comic Sans MS;fontSize=19;" vertex="1" parent="O2DiKnPmDoYQamAQj3y5-37">
          <mxGeometry x="160" width="40" height="40" as="geometry" />
        </mxCell>
        <mxCell id="O2DiKnPmDoYQamAQj3y5-43" value="" style="group;fontFamily=Comic Sans MS;fontSize=19;" vertex="1" connectable="0" parent="1">
          <mxGeometry x="450" y="545" width="200" height="40" as="geometry" />
        </mxCell>
        <mxCell id="O2DiKnPmDoYQamAQj3y5-44" value="13" style="whiteSpace=wrap;html=1;aspect=fixed;fontFamily=Comic Sans MS;fontSize=19;" vertex="1" parent="O2DiKnPmDoYQamAQj3y5-43">
          <mxGeometry width="40" height="40" as="geometry" />
        </mxCell>
        <mxCell id="O2DiKnPmDoYQamAQj3y5-45" value="14" style="whiteSpace=wrap;html=1;aspect=fixed;fontFamily=Comic Sans MS;fontSize=19;" vertex="1" parent="O2DiKnPmDoYQamAQj3y5-43">
          <mxGeometry x="40" width="40" height="40" as="geometry" />
        </mxCell>
        <mxCell id="O2DiKnPmDoYQamAQj3y5-46" value="" style="whiteSpace=wrap;html=1;aspect=fixed;fontFamily=Comic Sans MS;fontSize=19;" vertex="1" parent="O2DiKnPmDoYQamAQj3y5-43">
          <mxGeometry x="80" width="40" height="40" as="geometry" />
        </mxCell>
        <mxCell id="O2DiKnPmDoYQamAQj3y5-47" value="" style="whiteSpace=wrap;html=1;aspect=fixed;fontFamily=Comic Sans MS;fontSize=19;" vertex="1" parent="O2DiKnPmDoYQamAQj3y5-43">
          <mxGeometry x="120" width="40" height="40" as="geometry" />
        </mxCell>
        <mxCell id="O2DiKnPmDoYQamAQj3y5-48" value="" style="whiteSpace=wrap;html=1;aspect=fixed;fillColor=#d5e8d4;strokeColor=#82b366;fontFamily=Comic Sans MS;fontSize=19;" vertex="1" parent="O2DiKnPmDoYQamAQj3y5-43">
          <mxGeometry x="160" width="40" height="40" as="geometry" />
        </mxCell>
        <mxCell id="O2DiKnPmDoYQamAQj3y5-49" value="" style="group;fontFamily=Comic Sans MS;fontSize=19;" vertex="1" connectable="0" parent="1">
          <mxGeometry x="660" y="545" width="200" height="40" as="geometry" />
        </mxCell>
        <mxCell id="O2DiKnPmDoYQamAQj3y5-50" value="16" style="whiteSpace=wrap;html=1;aspect=fixed;fontFamily=Comic Sans MS;fontSize=19;" vertex="1" parent="O2DiKnPmDoYQamAQj3y5-49">
          <mxGeometry width="40" height="40" as="geometry" />
        </mxCell>
        <mxCell id="O2DiKnPmDoYQamAQj3y5-51" value="17" style="whiteSpace=wrap;html=1;aspect=fixed;fontFamily=Comic Sans MS;fontSize=19;" vertex="1" parent="O2DiKnPmDoYQamAQj3y5-49">
          <mxGeometry x="40" width="40" height="40" as="geometry" />
        </mxCell>
        <mxCell id="O2DiKnPmDoYQamAQj3y5-52" value="18" style="whiteSpace=wrap;html=1;aspect=fixed;fontFamily=Comic Sans MS;fontSize=19;" vertex="1" parent="O2DiKnPmDoYQamAQj3y5-49">
          <mxGeometry x="80" width="40" height="40" as="geometry" />
        </mxCell>
        <mxCell id="O2DiKnPmDoYQamAQj3y5-53" value="19" style="whiteSpace=wrap;html=1;aspect=fixed;fontFamily=Comic Sans MS;fontSize=19;" vertex="1" parent="O2DiKnPmDoYQamAQj3y5-49">
          <mxGeometry x="120" width="40" height="40" as="geometry" />
        </mxCell>
        <mxCell id="O2DiKnPmDoYQamAQj3y5-54" value="" style="whiteSpace=wrap;html=1;aspect=fixed;fillColor=#d5e8d4;strokeColor=#82b366;fontFamily=Comic Sans MS;fontSize=19;" vertex="1" parent="O2DiKnPmDoYQamAQj3y5-49">
          <mxGeometry x="160" width="40" height="40" as="geometry" />
        </mxCell>
        <mxCell id="O2DiKnPmDoYQamAQj3y5-55" style="rounded=0;orthogonalLoop=1;jettySize=auto;html=1;fontFamily=Comic Sans MS;fontSize=19;exitX=0;exitY=1;exitDx=0;exitDy=0;" edge="1" parent="1" source="O2DiKnPmDoYQamAQj3y5-8">
          <mxGeometry relative="1" as="geometry">
            <mxPoint x="-310" y="545" as="targetPoint" />
          </mxGeometry>
        </mxCell>
        <mxCell id="O2DiKnPmDoYQamAQj3y5-56" style="edgeStyle=none;rounded=0;orthogonalLoop=1;jettySize=auto;html=1;fontFamily=Comic Sans MS;fontSize=19;exitX=1;exitY=1;exitDx=0;exitDy=0;" edge="1" parent="1" source="O2DiKnPmDoYQamAQj3y5-8" target="O2DiKnPmDoYQamAQj3y5-28">
          <mxGeometry relative="1" as="geometry" />
        </mxCell>
        <mxCell id="O2DiKnPmDoYQamAQj3y5-57" style="edgeStyle=none;rounded=0;orthogonalLoop=1;jettySize=auto;html=1;entryX=0.75;entryY=0;entryDx=0;entryDy=0;fontFamily=Comic Sans MS;fontSize=19;exitX=0;exitY=1;exitDx=0;exitDy=0;" edge="1" parent="1" source="O2DiKnPmDoYQamAQj3y5-10" target="O2DiKnPmDoYQamAQj3y5-33">
          <mxGeometry relative="1" as="geometry" />
        </mxCell>
        <mxCell id="O2DiKnPmDoYQamAQj3y5-58" style="edgeStyle=none;rounded=0;orthogonalLoop=1;jettySize=auto;html=1;fontFamily=Comic Sans MS;fontSize=19;exitX=0;exitY=1;exitDx=0;exitDy=0;" edge="1" parent="1" source="O2DiKnPmDoYQamAQj3y5-2">
          <mxGeometry relative="1" as="geometry">
            <mxPoint x="60" y="425" as="targetPoint" />
          </mxGeometry>
        </mxCell>
        <mxCell id="O2DiKnPmDoYQamAQj3y5-59" style="edgeStyle=none;rounded=0;orthogonalLoop=1;jettySize=auto;html=1;entryX=0.5;entryY=0;entryDx=0;entryDy=0;fontFamily=Comic Sans MS;fontSize=19;exitX=0;exitY=1;exitDx=0;exitDy=0;" edge="1" parent="1" source="O2DiKnPmDoYQamAQj3y5-3" target="O2DiKnPmDoYQamAQj3y5-16">
          <mxGeometry relative="1" as="geometry" />
        </mxCell>
        <mxCell id="O2DiKnPmDoYQamAQj3y5-60" style="edgeStyle=none;rounded=0;orthogonalLoop=1;jettySize=auto;html=1;entryX=0.5;entryY=0;entryDx=0;entryDy=0;fontFamily=Comic Sans MS;fontSize=19;exitX=0;exitY=1;exitDx=0;exitDy=0;" edge="1" parent="1" source="O2DiKnPmDoYQamAQj3y5-14" target="O2DiKnPmDoYQamAQj3y5-40">
          <mxGeometry relative="1" as="geometry" />
        </mxCell>
        <mxCell id="O2DiKnPmDoYQamAQj3y5-61" style="edgeStyle=none;rounded=0;orthogonalLoop=1;jettySize=auto;html=1;entryX=0.5;entryY=0;entryDx=0;entryDy=0;fontFamily=Comic Sans MS;fontSize=19;exitX=0;exitY=1;exitDx=0;exitDy=0;" edge="1" parent="1" source="O2DiKnPmDoYQamAQj3y5-15" target="O2DiKnPmDoYQamAQj3y5-46">
          <mxGeometry relative="1" as="geometry" />
        </mxCell>
        <mxCell id="O2DiKnPmDoYQamAQj3y5-62" style="edgeStyle=none;rounded=0;orthogonalLoop=1;jettySize=auto;html=1;entryX=0.5;entryY=0;entryDx=0;entryDy=0;fontFamily=Comic Sans MS;fontSize=19;" edge="1" parent="1" target="O2DiKnPmDoYQamAQj3y5-52">
          <mxGeometry relative="1" as="geometry">
            <mxPoint x="640" y="465" as="sourcePoint" />
          </mxGeometry>
        </mxCell>
        <mxCell id="O2DiKnPmDoYQamAQj3y5-63" value="" style="group;fontFamily=Comic Sans MS;fontSize=19;" vertex="1" connectable="0" parent="1">
          <mxGeometry x="-540" y="220" width="200" height="40" as="geometry" />
        </mxCell>
        <mxCell id="O2DiKnPmDoYQamAQj3y5-64" value="1" style="whiteSpace=wrap;html=1;aspect=fixed;fontFamily=Comic Sans MS;fontSize=19;" vertex="1" parent="O2DiKnPmDoYQamAQj3y5-63">
          <mxGeometry width="40" height="40" as="geometry" />
        </mxCell>
        <mxCell id="O2DiKnPmDoYQamAQj3y5-65" value="2" style="whiteSpace=wrap;html=1;aspect=fixed;fontFamily=Comic Sans MS;fontSize=19;" vertex="1" parent="O2DiKnPmDoYQamAQj3y5-63">
          <mxGeometry x="40" width="40" height="40" as="geometry" />
        </mxCell>
        <mxCell id="O2DiKnPmDoYQamAQj3y5-66" value="" style="whiteSpace=wrap;html=1;aspect=fixed;fontFamily=Comic Sans MS;fontSize=19;" vertex="1" parent="O2DiKnPmDoYQamAQj3y5-63">
          <mxGeometry x="80" width="40" height="40" as="geometry" />
        </mxCell>
        <mxCell id="O2DiKnPmDoYQamAQj3y5-67" value="" style="whiteSpace=wrap;html=1;aspect=fixed;fontFamily=Comic Sans MS;fontSize=19;" vertex="1" parent="O2DiKnPmDoYQamAQj3y5-63">
          <mxGeometry x="120" width="40" height="40" as="geometry" />
        </mxCell>
        <mxCell id="O2DiKnPmDoYQamAQj3y5-68" value="" style="whiteSpace=wrap;html=1;aspect=fixed;fillColor=#d5e8d4;strokeColor=#82b366;fontFamily=Comic Sans MS;fontSize=19;" vertex="1" parent="O2DiKnPmDoYQamAQj3y5-63">
          <mxGeometry x="160" width="40" height="40" as="geometry" />
        </mxCell>
        <mxCell id="R_bOfF44yfjxWM07QA_J-55" style="rounded=0;orthogonalLoop=1;jettySize=auto;html=1;fontFamily=Comic Sans MS;fontSize=19;exitX=0;exitY=1;exitDx=0;exitDy=0;entryX=0;entryY=0;entryDx=0;entryDy=0;" edge="1" source="R_bOfF44yfjxWM07QA_J-109" parent="1" target="R_bOfF44yfjxWM07QA_J-106">
          <mxGeometry relative="1" as="geometry">
            <mxPoint x="-70" y="920" as="targetPoint" />
            <mxPoint x="190" y="780" as="sourcePoint" />
          </mxGeometry>
        </mxCell>
        <mxCell id="R_bOfF44yfjxWM07QA_J-56" style="edgeStyle=none;rounded=0;orthogonalLoop=1;jettySize=auto;html=1;fontFamily=Comic Sans MS;fontSize=19;exitX=0;exitY=1;exitDx=0;exitDy=0;entryX=0;entryY=0;entryDx=0;entryDy=0;" edge="1" source="R_bOfF44yfjxWM07QA_J-110" target="R_bOfF44yfjxWM07QA_J-101" parent="1">
          <mxGeometry relative="1" as="geometry">
            <mxPoint x="322" y="832" as="sourcePoint" />
            <mxPoint x="180" y="931.6666666666667" as="targetPoint" />
          </mxGeometry>
        </mxCell>
        <mxCell id="R_bOfF44yfjxWM07QA_J-57" style="edgeStyle=none;rounded=0;orthogonalLoop=1;jettySize=auto;html=1;entryX=1;entryY=0;entryDx=0;entryDy=0;fontFamily=Comic Sans MS;fontSize=19;exitX=0;exitY=1;exitDx=0;exitDy=0;" edge="1" source="R_bOfF44yfjxWM07QA_J-111" target="R_bOfF44yfjxWM07QA_J-33" parent="1">
          <mxGeometry relative="1" as="geometry">
            <mxPoint x="354.00000000000045" y="832" as="sourcePoint" />
          </mxGeometry>
        </mxCell>
        <mxCell id="R_bOfF44yfjxWM07QA_J-75" style="edgeStyle=none;rounded=0;orthogonalLoop=1;jettySize=auto;html=1;entryX=0;entryY=0;entryDx=0;entryDy=0;fontFamily=Comic Sans MS;fontSize=19;exitX=0;exitY=1;exitDx=0;exitDy=0;" edge="1" parent="1" source="R_bOfF44yfjxWM07QA_J-112" target="R_bOfF44yfjxWM07QA_J-81">
          <mxGeometry relative="1" as="geometry">
            <mxPoint x="385.99999999999955" y="832" as="sourcePoint" />
            <mxPoint x="580" y="920" as="targetPoint" />
          </mxGeometry>
        </mxCell>
        <mxCell id="R_bOfF44yfjxWM07QA_J-76" style="edgeStyle=none;rounded=0;orthogonalLoop=1;jettySize=auto;html=1;entryX=0;entryY=0;entryDx=0;entryDy=0;fontFamily=Comic Sans MS;fontSize=19;exitX=1;exitY=1;exitDx=0;exitDy=0;" edge="1" parent="1" source="R_bOfF44yfjxWM07QA_J-112" target="R_bOfF44yfjxWM07QA_J-86">
          <mxGeometry relative="1" as="geometry">
            <mxPoint x="417.99999999999955" y="832" as="sourcePoint" />
            <mxPoint x="810" y="920" as="targetPoint" />
          </mxGeometry>
        </mxCell>
        <mxCell id="R_bOfF44yfjxWM07QA_J-77" value="" style="group" vertex="1" connectable="0" parent="1">
          <mxGeometry x="280" y="920" width="160" height="40" as="geometry" />
        </mxCell>
        <mxCell id="R_bOfF44yfjxWM07QA_J-32" value="7" style="whiteSpace=wrap;html=1;aspect=fixed;fontFamily=Comic Sans MS;fontSize=19;" vertex="1" parent="R_bOfF44yfjxWM07QA_J-77">
          <mxGeometry width="40" height="40" as="geometry" />
        </mxCell>
        <mxCell id="R_bOfF44yfjxWM07QA_J-33" value="8" style="whiteSpace=wrap;html=1;aspect=fixed;fontFamily=Comic Sans MS;fontSize=19;" vertex="1" parent="R_bOfF44yfjxWM07QA_J-77">
          <mxGeometry x="40" width="40" height="40" as="geometry" />
        </mxCell>
        <mxCell id="R_bOfF44yfjxWM07QA_J-34" value="" style="whiteSpace=wrap;html=1;aspect=fixed;fontFamily=Comic Sans MS;fontSize=19;" vertex="1" parent="R_bOfF44yfjxWM07QA_J-77">
          <mxGeometry x="80" width="40" height="40" as="geometry" />
        </mxCell>
        <mxCell id="R_bOfF44yfjxWM07QA_J-35" value="" style="whiteSpace=wrap;html=1;aspect=fixed;fontFamily=Comic Sans MS;fontSize=19;" vertex="1" parent="R_bOfF44yfjxWM07QA_J-77">
          <mxGeometry x="120" width="40" height="40" as="geometry" />
        </mxCell>
        <mxCell id="R_bOfF44yfjxWM07QA_J-78" value="" style="group" vertex="1" connectable="0" parent="1">
          <mxGeometry x="480" y="920" width="160" height="40" as="geometry" />
        </mxCell>
        <mxCell id="R_bOfF44yfjxWM07QA_J-79" value="7" style="whiteSpace=wrap;html=1;aspect=fixed;fontFamily=Comic Sans MS;fontSize=19;" vertex="1" parent="R_bOfF44yfjxWM07QA_J-78">
          <mxGeometry width="40" height="40" as="geometry" />
        </mxCell>
        <mxCell id="R_bOfF44yfjxWM07QA_J-80" value="8" style="whiteSpace=wrap;html=1;aspect=fixed;fontFamily=Comic Sans MS;fontSize=19;" vertex="1" parent="R_bOfF44yfjxWM07QA_J-78">
          <mxGeometry x="40" width="40" height="40" as="geometry" />
        </mxCell>
        <mxCell id="R_bOfF44yfjxWM07QA_J-81" value="" style="whiteSpace=wrap;html=1;aspect=fixed;fontFamily=Comic Sans MS;fontSize=19;" vertex="1" parent="R_bOfF44yfjxWM07QA_J-78">
          <mxGeometry x="80" width="40" height="40" as="geometry" />
        </mxCell>
        <mxCell id="R_bOfF44yfjxWM07QA_J-82" value="" style="whiteSpace=wrap;html=1;aspect=fixed;fontFamily=Comic Sans MS;fontSize=19;" vertex="1" parent="R_bOfF44yfjxWM07QA_J-78">
          <mxGeometry x="120" width="40" height="40" as="geometry" />
        </mxCell>
        <mxCell id="R_bOfF44yfjxWM07QA_J-83" value="" style="group" vertex="1" connectable="0" parent="1">
          <mxGeometry x="680" y="920" width="160" height="40" as="geometry" />
        </mxCell>
        <mxCell id="R_bOfF44yfjxWM07QA_J-84" value="7" style="whiteSpace=wrap;html=1;aspect=fixed;fontFamily=Comic Sans MS;fontSize=19;" vertex="1" parent="R_bOfF44yfjxWM07QA_J-83">
          <mxGeometry width="40" height="40" as="geometry" />
        </mxCell>
        <mxCell id="R_bOfF44yfjxWM07QA_J-85" value="8" style="whiteSpace=wrap;html=1;aspect=fixed;fontFamily=Comic Sans MS;fontSize=19;" vertex="1" parent="R_bOfF44yfjxWM07QA_J-83">
          <mxGeometry x="40" width="40" height="40" as="geometry" />
        </mxCell>
        <mxCell id="R_bOfF44yfjxWM07QA_J-86" value="" style="whiteSpace=wrap;html=1;aspect=fixed;fontFamily=Comic Sans MS;fontSize=19;" vertex="1" parent="R_bOfF44yfjxWM07QA_J-83">
          <mxGeometry x="80" width="40" height="40" as="geometry" />
        </mxCell>
        <mxCell id="R_bOfF44yfjxWM07QA_J-87" value="" style="whiteSpace=wrap;html=1;aspect=fixed;fontFamily=Comic Sans MS;fontSize=19;" vertex="1" parent="R_bOfF44yfjxWM07QA_J-83">
          <mxGeometry x="120" width="40" height="40" as="geometry" />
        </mxCell>
        <mxCell id="R_bOfF44yfjxWM07QA_J-98" value="" style="group" vertex="1" connectable="0" parent="1">
          <mxGeometry x="80" y="920" width="160" height="40" as="geometry" />
        </mxCell>
        <mxCell id="R_bOfF44yfjxWM07QA_J-99" value="7" style="whiteSpace=wrap;html=1;aspect=fixed;fontFamily=Comic Sans MS;fontSize=19;" vertex="1" parent="R_bOfF44yfjxWM07QA_J-98">
          <mxGeometry width="40" height="40" as="geometry" />
        </mxCell>
        <mxCell id="R_bOfF44yfjxWM07QA_J-100" value="8" style="whiteSpace=wrap;html=1;aspect=fixed;fontFamily=Comic Sans MS;fontSize=19;" vertex="1" parent="R_bOfF44yfjxWM07QA_J-98">
          <mxGeometry x="40" width="40" height="40" as="geometry" />
        </mxCell>
        <mxCell id="R_bOfF44yfjxWM07QA_J-101" value="" style="whiteSpace=wrap;html=1;aspect=fixed;fontFamily=Comic Sans MS;fontSize=19;" vertex="1" parent="R_bOfF44yfjxWM07QA_J-98">
          <mxGeometry x="80" width="40" height="40" as="geometry" />
        </mxCell>
        <mxCell id="R_bOfF44yfjxWM07QA_J-102" value="" style="whiteSpace=wrap;html=1;aspect=fixed;fontFamily=Comic Sans MS;fontSize=19;" vertex="1" parent="R_bOfF44yfjxWM07QA_J-98">
          <mxGeometry x="120" width="40" height="40" as="geometry" />
        </mxCell>
        <mxCell id="R_bOfF44yfjxWM07QA_J-103" value="" style="group" vertex="1" connectable="0" parent="1">
          <mxGeometry x="-120" y="920" width="160" height="40" as="geometry" />
        </mxCell>
        <mxCell id="R_bOfF44yfjxWM07QA_J-104" value="7" style="whiteSpace=wrap;html=1;aspect=fixed;fontFamily=Comic Sans MS;fontSize=19;" vertex="1" parent="R_bOfF44yfjxWM07QA_J-103">
          <mxGeometry width="40" height="40" as="geometry" />
        </mxCell>
        <mxCell id="R_bOfF44yfjxWM07QA_J-105" value="8" style="whiteSpace=wrap;html=1;aspect=fixed;fontFamily=Comic Sans MS;fontSize=19;" vertex="1" parent="R_bOfF44yfjxWM07QA_J-103">
          <mxGeometry x="40" width="40" height="40" as="geometry" />
        </mxCell>
        <mxCell id="R_bOfF44yfjxWM07QA_J-106" value="" style="whiteSpace=wrap;html=1;aspect=fixed;fontFamily=Comic Sans MS;fontSize=19;" vertex="1" parent="R_bOfF44yfjxWM07QA_J-103">
          <mxGeometry x="80" width="40" height="40" as="geometry" />
        </mxCell>
        <mxCell id="R_bOfF44yfjxWM07QA_J-107" value="" style="whiteSpace=wrap;html=1;aspect=fixed;fontFamily=Comic Sans MS;fontSize=19;" vertex="1" parent="R_bOfF44yfjxWM07QA_J-103">
          <mxGeometry x="120" width="40" height="40" as="geometry" />
        </mxCell>
        <mxCell id="R_bOfF44yfjxWM07QA_J-108" value="" style="group" vertex="1" connectable="0" parent="1">
          <mxGeometry x="280" y="840" width="160" height="40" as="geometry" />
        </mxCell>
        <mxCell id="R_bOfF44yfjxWM07QA_J-109" value="7" style="whiteSpace=wrap;html=1;aspect=fixed;fontFamily=Comic Sans MS;fontSize=19;" vertex="1" parent="R_bOfF44yfjxWM07QA_J-108">
          <mxGeometry width="40" height="40" as="geometry" />
        </mxCell>
        <mxCell id="R_bOfF44yfjxWM07QA_J-110" value="8" style="whiteSpace=wrap;html=1;aspect=fixed;fontFamily=Comic Sans MS;fontSize=19;" vertex="1" parent="R_bOfF44yfjxWM07QA_J-108">
          <mxGeometry x="40" width="40" height="40" as="geometry" />
        </mxCell>
        <mxCell id="R_bOfF44yfjxWM07QA_J-111" value="" style="whiteSpace=wrap;html=1;aspect=fixed;fontFamily=Comic Sans MS;fontSize=19;" vertex="1" parent="R_bOfF44yfjxWM07QA_J-108">
          <mxGeometry x="80" width="40" height="40" as="geometry" />
        </mxCell>
        <mxCell id="R_bOfF44yfjxWM07QA_J-112" value="" style="whiteSpace=wrap;html=1;aspect=fixed;fontFamily=Comic Sans MS;fontSize=19;" vertex="1" parent="R_bOfF44yfjxWM07QA_J-108">
          <mxGeometry x="120" width="40" height="40" as="geometry" />
        </mxCell>
        <mxCell id="R_bOfF44yfjxWM07QA_J-186" value="" style="group;fontFamily=Comic Sans MS;fontSize=19;" vertex="1" connectable="0" parent="1">
          <mxGeometry x="1640" y="340" width="200" height="40" as="geometry" />
        </mxCell>
        <mxCell id="R_bOfF44yfjxWM07QA_J-187" value="3" style="whiteSpace=wrap;html=1;aspect=fixed;fontFamily=Comic Sans MS;fontSize=19;" vertex="1" parent="R_bOfF44yfjxWM07QA_J-186">
          <mxGeometry width="40" height="40" as="geometry" />
        </mxCell>
        <mxCell id="R_bOfF44yfjxWM07QA_J-188" value="6" style="whiteSpace=wrap;html=1;aspect=fixed;fontFamily=Comic Sans MS;fontSize=19;" vertex="1" parent="R_bOfF44yfjxWM07QA_J-186">
          <mxGeometry x="40" width="40" height="40" as="geometry" />
        </mxCell>
        <mxCell id="R_bOfF44yfjxWM07QA_J-189" value="" style="whiteSpace=wrap;html=1;aspect=fixed;fontFamily=Comic Sans MS;fontSize=19;" vertex="1" parent="R_bOfF44yfjxWM07QA_J-186">
          <mxGeometry x="80" width="40" height="40" as="geometry" />
        </mxCell>
        <mxCell id="R_bOfF44yfjxWM07QA_J-190" value="" style="whiteSpace=wrap;html=1;aspect=fixed;fontFamily=Comic Sans MS;fontSize=19;" vertex="1" parent="R_bOfF44yfjxWM07QA_J-186">
          <mxGeometry x="120" width="40" height="40" as="geometry" />
        </mxCell>
        <mxCell id="R_bOfF44yfjxWM07QA_J-191" value="" style="whiteSpace=wrap;html=1;aspect=fixed;fontFamily=Comic Sans MS;fontSize=19;fillColor=#d5e8d4;strokeColor=#82b366;" vertex="1" parent="R_bOfF44yfjxWM07QA_J-186">
          <mxGeometry x="160" width="40" height="40" as="geometry" />
        </mxCell>
        <mxCell id="R_bOfF44yfjxWM07QA_J-192" value="3" style="group;fontFamily=Comic Sans MS;fontSize=19;" vertex="1" connectable="0" parent="1">
          <mxGeometry x="1240" y="520" width="200" height="40" as="geometry" />
        </mxCell>
        <mxCell id="R_bOfF44yfjxWM07QA_J-193" value="1" style="whiteSpace=wrap;html=1;aspect=fixed;fontFamily=Comic Sans MS;fontSize=19;" vertex="1" parent="R_bOfF44yfjxWM07QA_J-192">
          <mxGeometry width="40" height="40" as="geometry" />
        </mxCell>
        <mxCell id="R_bOfF44yfjxWM07QA_J-194" value="2" style="whiteSpace=wrap;html=1;aspect=fixed;fontFamily=Comic Sans MS;fontSize=19;" vertex="1" parent="R_bOfF44yfjxWM07QA_J-192">
          <mxGeometry x="40" width="40" height="40" as="geometry" />
        </mxCell>
        <mxCell id="R_bOfF44yfjxWM07QA_J-195" value="3" style="whiteSpace=wrap;html=1;aspect=fixed;fontFamily=Comic Sans MS;fontSize=19;" vertex="1" parent="R_bOfF44yfjxWM07QA_J-192">
          <mxGeometry x="80" width="40" height="40" as="geometry" />
        </mxCell>
        <mxCell id="R_bOfF44yfjxWM07QA_J-196" value="" style="whiteSpace=wrap;html=1;aspect=fixed;fontFamily=Comic Sans MS;fontSize=19;" vertex="1" parent="R_bOfF44yfjxWM07QA_J-192">
          <mxGeometry x="120" width="40" height="40" as="geometry" />
        </mxCell>
        <mxCell id="R_bOfF44yfjxWM07QA_J-197" value="" style="whiteSpace=wrap;html=1;aspect=fixed;fontFamily=Comic Sans MS;fontSize=19;" vertex="1" parent="R_bOfF44yfjxWM07QA_J-192">
          <mxGeometry x="160" width="40" height="40" as="geometry" />
        </mxCell>
        <mxCell id="R_bOfF44yfjxWM07QA_J-198" value="5" style="group;fontFamily=Comic Sans MS;fontSize=19;" vertex="1" connectable="0" parent="1">
          <mxGeometry x="1480" y="520" width="200" height="40" as="geometry" />
        </mxCell>
        <mxCell id="R_bOfF44yfjxWM07QA_J-199" value="4" style="whiteSpace=wrap;html=1;aspect=fixed;fontFamily=Comic Sans MS;fontSize=19;" vertex="1" parent="R_bOfF44yfjxWM07QA_J-198">
          <mxGeometry width="40" height="40" as="geometry" />
        </mxCell>
        <mxCell id="R_bOfF44yfjxWM07QA_J-200" value="5" style="whiteSpace=wrap;html=1;aspect=fixed;fontFamily=Comic Sans MS;fontSize=19;" vertex="1" parent="R_bOfF44yfjxWM07QA_J-198">
          <mxGeometry x="40" width="40" height="40" as="geometry" />
        </mxCell>
        <mxCell id="R_bOfF44yfjxWM07QA_J-201" value="6" style="whiteSpace=wrap;html=1;aspect=fixed;fontFamily=Comic Sans MS;fontSize=19;" vertex="1" parent="R_bOfF44yfjxWM07QA_J-198">
          <mxGeometry x="80" width="40" height="40" as="geometry" />
        </mxCell>
        <mxCell id="R_bOfF44yfjxWM07QA_J-202" value="" style="whiteSpace=wrap;html=1;aspect=fixed;fontFamily=Comic Sans MS;fontSize=19;" vertex="1" parent="R_bOfF44yfjxWM07QA_J-198">
          <mxGeometry x="120" width="40" height="40" as="geometry" />
        </mxCell>
        <mxCell id="R_bOfF44yfjxWM07QA_J-203" value="" style="whiteSpace=wrap;html=1;aspect=fixed;fontFamily=Comic Sans MS;fontSize=19;" vertex="1" parent="R_bOfF44yfjxWM07QA_J-198">
          <mxGeometry x="160" width="40" height="40" as="geometry" />
        </mxCell>
        <mxCell id="R_bOfF44yfjxWM07QA_J-204" value="7" style="group;fontFamily=Comic Sans MS;fontSize=19;" vertex="1" connectable="0" parent="1">
          <mxGeometry x="1720" y="520" width="200" height="40" as="geometry" />
        </mxCell>
        <mxCell id="R_bOfF44yfjxWM07QA_J-205" value="7" style="whiteSpace=wrap;html=1;aspect=fixed;fontFamily=Comic Sans MS;fontSize=19;" vertex="1" parent="R_bOfF44yfjxWM07QA_J-204">
          <mxGeometry width="40" height="40" as="geometry" />
        </mxCell>
        <mxCell id="R_bOfF44yfjxWM07QA_J-206" value="8" style="whiteSpace=wrap;html=1;aspect=fixed;fontFamily=Comic Sans MS;fontSize=19;" vertex="1" parent="R_bOfF44yfjxWM07QA_J-204">
          <mxGeometry x="40" width="40" height="40" as="geometry" />
        </mxCell>
        <mxCell id="R_bOfF44yfjxWM07QA_J-207" value="9" style="whiteSpace=wrap;html=1;aspect=fixed;fontFamily=Comic Sans MS;fontSize=19;" vertex="1" parent="R_bOfF44yfjxWM07QA_J-204">
          <mxGeometry x="80" width="40" height="40" as="geometry" />
        </mxCell>
        <mxCell id="R_bOfF44yfjxWM07QA_J-208" value="" style="whiteSpace=wrap;html=1;aspect=fixed;fontFamily=Comic Sans MS;fontSize=19;" vertex="1" parent="R_bOfF44yfjxWM07QA_J-204">
          <mxGeometry x="120" width="40" height="40" as="geometry" />
        </mxCell>
        <mxCell id="R_bOfF44yfjxWM07QA_J-209" value="" style="whiteSpace=wrap;html=1;aspect=fixed;fontFamily=Comic Sans MS;fontSize=19;" vertex="1" parent="R_bOfF44yfjxWM07QA_J-204">
          <mxGeometry x="160" width="40" height="40" as="geometry" />
        </mxCell>
        <mxCell id="R_bOfF44yfjxWM07QA_J-210" style="rounded=0;orthogonalLoop=1;jettySize=auto;html=1;entryX=0.5;entryY=0;entryDx=0;entryDy=0;exitX=0;exitY=1;exitDx=0;exitDy=0;" edge="1" parent="1" source="R_bOfF44yfjxWM07QA_J-187" target="R_bOfF44yfjxWM07QA_J-195">
          <mxGeometry relative="1" as="geometry" />
        </mxCell>
        <mxCell id="R_bOfF44yfjxWM07QA_J-211" style="edgeStyle=none;rounded=0;orthogonalLoop=1;jettySize=auto;html=1;entryX=0.25;entryY=0;entryDx=0;entryDy=0;exitX=0;exitY=1;exitDx=0;exitDy=0;" edge="1" parent="1" source="R_bOfF44yfjxWM07QA_J-188" target="R_bOfF44yfjxWM07QA_J-202">
          <mxGeometry relative="1" as="geometry" />
        </mxCell>
        <mxCell id="R_bOfF44yfjxWM07QA_J-212" style="edgeStyle=none;rounded=0;orthogonalLoop=1;jettySize=auto;html=1;entryX=0.25;entryY=0;entryDx=0;entryDy=0;exitX=0;exitY=1;exitDx=0;exitDy=0;" edge="1" parent="1" source="R_bOfF44yfjxWM07QA_J-189" target="R_bOfF44yfjxWM07QA_J-207">
          <mxGeometry relative="1" as="geometry" />
        </mxCell>
        <mxCell id="R_bOfF44yfjxWM07QA_J-213" style="edgeStyle=none;rounded=0;orthogonalLoop=1;jettySize=auto;html=1;entryX=0;entryY=0.5;entryDx=0;entryDy=0;" edge="1" parent="1" source="R_bOfF44yfjxWM07QA_J-197" target="R_bOfF44yfjxWM07QA_J-199">
          <mxGeometry relative="1" as="geometry" />
        </mxCell>
        <mxCell id="R_bOfF44yfjxWM07QA_J-214" style="edgeStyle=none;rounded=0;orthogonalLoop=1;jettySize=auto;html=1;entryX=0;entryY=0.5;entryDx=0;entryDy=0;" edge="1" parent="1" source="R_bOfF44yfjxWM07QA_J-203" target="R_bOfF44yfjxWM07QA_J-205">
          <mxGeometry relative="1" as="geometry" />
        </mxCell>
        <mxCell id="R_bOfF44yfjxWM07QA_J-216" value="" style="group;fontFamily=Comic Sans MS;fontSize=19;" vertex="1" connectable="0" parent="1">
          <mxGeometry x="1620" y="760" width="200" height="40" as="geometry" />
        </mxCell>
        <mxCell id="R_bOfF44yfjxWM07QA_J-217" value="3" style="whiteSpace=wrap;html=1;aspect=fixed;fontFamily=Comic Sans MS;fontSize=19;" vertex="1" parent="R_bOfF44yfjxWM07QA_J-216">
          <mxGeometry width="40" height="40" as="geometry" />
        </mxCell>
        <mxCell id="R_bOfF44yfjxWM07QA_J-218" value="6" style="whiteSpace=wrap;html=1;aspect=fixed;fontFamily=Comic Sans MS;fontSize=19;" vertex="1" parent="R_bOfF44yfjxWM07QA_J-216">
          <mxGeometry x="40" width="40" height="40" as="geometry" />
        </mxCell>
        <mxCell id="R_bOfF44yfjxWM07QA_J-219" value="" style="whiteSpace=wrap;html=1;aspect=fixed;fontFamily=Comic Sans MS;fontSize=19;" vertex="1" parent="R_bOfF44yfjxWM07QA_J-216">
          <mxGeometry x="80" width="40" height="40" as="geometry" />
        </mxCell>
        <mxCell id="R_bOfF44yfjxWM07QA_J-220" value="" style="whiteSpace=wrap;html=1;aspect=fixed;fontFamily=Comic Sans MS;fontSize=19;" vertex="1" parent="R_bOfF44yfjxWM07QA_J-216">
          <mxGeometry x="120" width="40" height="40" as="geometry" />
        </mxCell>
        <mxCell id="R_bOfF44yfjxWM07QA_J-221" value="" style="whiteSpace=wrap;html=1;aspect=fixed;fontFamily=Comic Sans MS;fontSize=19;fillColor=#d5e8d4;strokeColor=#82b366;" vertex="1" parent="R_bOfF44yfjxWM07QA_J-216">
          <mxGeometry x="160" width="40" height="40" as="geometry" />
        </mxCell>
        <mxCell id="R_bOfF44yfjxWM07QA_J-222" value="3" style="group;fontFamily=Comic Sans MS;fontSize=19;" vertex="1" connectable="0" parent="1">
          <mxGeometry x="1120" y="920" width="200" height="40" as="geometry" />
        </mxCell>
        <mxCell id="R_bOfF44yfjxWM07QA_J-223" value="1" style="whiteSpace=wrap;html=1;aspect=fixed;fontFamily=Comic Sans MS;fontSize=19;" vertex="1" parent="R_bOfF44yfjxWM07QA_J-222">
          <mxGeometry width="40" height="40" as="geometry" />
        </mxCell>
        <mxCell id="R_bOfF44yfjxWM07QA_J-224" value="2" style="whiteSpace=wrap;html=1;aspect=fixed;fontFamily=Comic Sans MS;fontSize=19;" vertex="1" parent="R_bOfF44yfjxWM07QA_J-222">
          <mxGeometry x="40" width="40" height="40" as="geometry" />
        </mxCell>
        <mxCell id="R_bOfF44yfjxWM07QA_J-225" value="3" style="whiteSpace=wrap;html=1;aspect=fixed;fontFamily=Comic Sans MS;fontSize=19;" vertex="1" parent="R_bOfF44yfjxWM07QA_J-222">
          <mxGeometry x="80" width="40" height="40" as="geometry" />
        </mxCell>
        <mxCell id="R_bOfF44yfjxWM07QA_J-226" value="" style="whiteSpace=wrap;html=1;aspect=fixed;fontFamily=Comic Sans MS;fontSize=19;" vertex="1" parent="R_bOfF44yfjxWM07QA_J-222">
          <mxGeometry x="120" width="40" height="40" as="geometry" />
        </mxCell>
        <mxCell id="R_bOfF44yfjxWM07QA_J-227" value="" style="whiteSpace=wrap;html=1;aspect=fixed;fontFamily=Comic Sans MS;fontSize=19;" vertex="1" parent="R_bOfF44yfjxWM07QA_J-222">
          <mxGeometry x="160" width="40" height="40" as="geometry" />
        </mxCell>
        <mxCell id="R_bOfF44yfjxWM07QA_J-228" value="5" style="group;fontFamily=Comic Sans MS;fontSize=19;" vertex="1" connectable="0" parent="1">
          <mxGeometry x="1360" y="920" width="200" height="40" as="geometry" />
        </mxCell>
        <mxCell id="R_bOfF44yfjxWM07QA_J-229" value="4" style="whiteSpace=wrap;html=1;aspect=fixed;fontFamily=Comic Sans MS;fontSize=19;" vertex="1" parent="R_bOfF44yfjxWM07QA_J-228">
          <mxGeometry width="40" height="40" as="geometry" />
        </mxCell>
        <mxCell id="R_bOfF44yfjxWM07QA_J-230" value="5" style="whiteSpace=wrap;html=1;aspect=fixed;fontFamily=Comic Sans MS;fontSize=19;" vertex="1" parent="R_bOfF44yfjxWM07QA_J-228">
          <mxGeometry x="40" width="40" height="40" as="geometry" />
        </mxCell>
        <mxCell id="R_bOfF44yfjxWM07QA_J-231" value="6" style="whiteSpace=wrap;html=1;aspect=fixed;fontFamily=Comic Sans MS;fontSize=19;" vertex="1" parent="R_bOfF44yfjxWM07QA_J-228">
          <mxGeometry x="80" width="40" height="40" as="geometry" />
        </mxCell>
        <mxCell id="R_bOfF44yfjxWM07QA_J-232" value="" style="whiteSpace=wrap;html=1;aspect=fixed;fontFamily=Comic Sans MS;fontSize=19;" vertex="1" parent="R_bOfF44yfjxWM07QA_J-228">
          <mxGeometry x="120" width="40" height="40" as="geometry" />
        </mxCell>
        <mxCell id="R_bOfF44yfjxWM07QA_J-233" value="" style="whiteSpace=wrap;html=1;aspect=fixed;fontFamily=Comic Sans MS;fontSize=19;" vertex="1" parent="R_bOfF44yfjxWM07QA_J-228">
          <mxGeometry x="160" width="40" height="40" as="geometry" />
        </mxCell>
        <mxCell id="R_bOfF44yfjxWM07QA_J-234" value="7" style="group;fontFamily=Comic Sans MS;fontSize=19;" vertex="1" connectable="0" parent="1">
          <mxGeometry x="1600" y="920" width="200" height="40" as="geometry" />
        </mxCell>
        <mxCell id="R_bOfF44yfjxWM07QA_J-235" value="7" style="whiteSpace=wrap;html=1;aspect=fixed;fontFamily=Comic Sans MS;fontSize=19;" vertex="1" parent="R_bOfF44yfjxWM07QA_J-234">
          <mxGeometry width="40" height="40" as="geometry" />
        </mxCell>
        <mxCell id="R_bOfF44yfjxWM07QA_J-236" value="8" style="whiteSpace=wrap;html=1;aspect=fixed;fontFamily=Comic Sans MS;fontSize=19;" vertex="1" parent="R_bOfF44yfjxWM07QA_J-234">
          <mxGeometry x="40" width="40" height="40" as="geometry" />
        </mxCell>
        <mxCell id="R_bOfF44yfjxWM07QA_J-237" value="9" style="whiteSpace=wrap;html=1;aspect=fixed;fontFamily=Comic Sans MS;fontSize=19;" vertex="1" parent="R_bOfF44yfjxWM07QA_J-234">
          <mxGeometry x="80" width="40" height="40" as="geometry" />
        </mxCell>
        <mxCell id="R_bOfF44yfjxWM07QA_J-238" value="" style="whiteSpace=wrap;html=1;aspect=fixed;fontFamily=Comic Sans MS;fontSize=19;" vertex="1" parent="R_bOfF44yfjxWM07QA_J-234">
          <mxGeometry x="120" width="40" height="40" as="geometry" />
        </mxCell>
        <mxCell id="R_bOfF44yfjxWM07QA_J-239" value="" style="whiteSpace=wrap;html=1;aspect=fixed;fontFamily=Comic Sans MS;fontSize=19;" vertex="1" parent="R_bOfF44yfjxWM07QA_J-234">
          <mxGeometry x="160" width="40" height="40" as="geometry" />
        </mxCell>
        <mxCell id="R_bOfF44yfjxWM07QA_J-240" style="rounded=0;orthogonalLoop=1;jettySize=auto;html=1;entryX=0.5;entryY=0;entryDx=0;entryDy=0;exitX=0;exitY=1;exitDx=0;exitDy=0;" edge="1" source="R_bOfF44yfjxWM07QA_J-217" target="R_bOfF44yfjxWM07QA_J-225" parent="1">
          <mxGeometry relative="1" as="geometry" />
        </mxCell>
        <mxCell id="R_bOfF44yfjxWM07QA_J-241" style="edgeStyle=none;rounded=0;orthogonalLoop=1;jettySize=auto;html=1;entryX=0.5;entryY=0;entryDx=0;entryDy=0;exitX=0;exitY=1;exitDx=0;exitDy=0;" edge="1" source="R_bOfF44yfjxWM07QA_J-218" target="R_bOfF44yfjxWM07QA_J-231" parent="1">
          <mxGeometry relative="1" as="geometry" />
        </mxCell>
        <mxCell id="R_bOfF44yfjxWM07QA_J-242" style="edgeStyle=none;rounded=0;orthogonalLoop=1;jettySize=auto;html=1;entryX=0.5;entryY=0;entryDx=0;entryDy=0;exitX=0;exitY=1;exitDx=0;exitDy=0;" edge="1" source="R_bOfF44yfjxWM07QA_J-219" target="R_bOfF44yfjxWM07QA_J-237" parent="1">
          <mxGeometry relative="1" as="geometry" />
        </mxCell>
        <mxCell id="R_bOfF44yfjxWM07QA_J-243" style="edgeStyle=none;rounded=0;orthogonalLoop=1;jettySize=auto;html=1;entryX=0;entryY=0.5;entryDx=0;entryDy=0;" edge="1" source="R_bOfF44yfjxWM07QA_J-227" target="R_bOfF44yfjxWM07QA_J-229" parent="1">
          <mxGeometry relative="1" as="geometry" />
        </mxCell>
        <mxCell id="R_bOfF44yfjxWM07QA_J-244" style="edgeStyle=none;rounded=0;orthogonalLoop=1;jettySize=auto;html=1;entryX=0;entryY=0.5;entryDx=0;entryDy=0;" edge="1" source="R_bOfF44yfjxWM07QA_J-233" target="R_bOfF44yfjxWM07QA_J-235" parent="1">
          <mxGeometry relative="1" as="geometry" />
        </mxCell>
        <mxCell id="R_bOfF44yfjxWM07QA_J-245" value="5" style="group;fontFamily=Comic Sans MS;fontSize=19;" vertex="1" connectable="0" parent="1">
          <mxGeometry x="1840" y="920" width="200" height="40" as="geometry" />
        </mxCell>
        <mxCell id="R_bOfF44yfjxWM07QA_J-246" value="4" style="whiteSpace=wrap;html=1;aspect=fixed;fontFamily=Comic Sans MS;fontSize=19;" vertex="1" parent="R_bOfF44yfjxWM07QA_J-245">
          <mxGeometry width="40" height="40" as="geometry" />
        </mxCell>
        <mxCell id="R_bOfF44yfjxWM07QA_J-247" value="5" style="whiteSpace=wrap;html=1;aspect=fixed;fontFamily=Comic Sans MS;fontSize=19;" vertex="1" parent="R_bOfF44yfjxWM07QA_J-245">
          <mxGeometry x="40" width="40" height="40" as="geometry" />
        </mxCell>
        <mxCell id="R_bOfF44yfjxWM07QA_J-248" value="6" style="whiteSpace=wrap;html=1;aspect=fixed;fontFamily=Comic Sans MS;fontSize=19;" vertex="1" parent="R_bOfF44yfjxWM07QA_J-245">
          <mxGeometry x="80" width="40" height="40" as="geometry" />
        </mxCell>
        <mxCell id="R_bOfF44yfjxWM07QA_J-249" value="" style="whiteSpace=wrap;html=1;aspect=fixed;fontFamily=Comic Sans MS;fontSize=19;" vertex="1" parent="R_bOfF44yfjxWM07QA_J-245">
          <mxGeometry x="120" width="40" height="40" as="geometry" />
        </mxCell>
        <mxCell id="R_bOfF44yfjxWM07QA_J-250" value="" style="whiteSpace=wrap;html=1;aspect=fixed;fontFamily=Comic Sans MS;fontSize=19;" vertex="1" parent="R_bOfF44yfjxWM07QA_J-245">
          <mxGeometry x="160" width="40" height="40" as="geometry" />
        </mxCell>
        <mxCell id="R_bOfF44yfjxWM07QA_J-251" style="edgeStyle=none;rounded=0;orthogonalLoop=1;jettySize=auto;html=1;entryX=0;entryY=0.5;entryDx=0;entryDy=0;" edge="1" source="R_bOfF44yfjxWM07QA_J-250" parent="1">
          <mxGeometry relative="1" as="geometry">
            <mxPoint x="2080" y="940" as="targetPoint" />
          </mxGeometry>
        </mxCell>
        <mxCell id="R_bOfF44yfjxWM07QA_J-252" value="5" style="group;fontFamily=Comic Sans MS;fontSize=19;" vertex="1" connectable="0" parent="1">
          <mxGeometry x="2080" y="920" width="200" height="40" as="geometry" />
        </mxCell>
        <mxCell id="R_bOfF44yfjxWM07QA_J-253" value="4" style="whiteSpace=wrap;html=1;aspect=fixed;fontFamily=Comic Sans MS;fontSize=19;" vertex="1" parent="R_bOfF44yfjxWM07QA_J-252">
          <mxGeometry width="40" height="40" as="geometry" />
        </mxCell>
        <mxCell id="R_bOfF44yfjxWM07QA_J-254" value="5" style="whiteSpace=wrap;html=1;aspect=fixed;fontFamily=Comic Sans MS;fontSize=19;" vertex="1" parent="R_bOfF44yfjxWM07QA_J-252">
          <mxGeometry x="40" width="40" height="40" as="geometry" />
        </mxCell>
        <mxCell id="R_bOfF44yfjxWM07QA_J-255" value="6" style="whiteSpace=wrap;html=1;aspect=fixed;fontFamily=Comic Sans MS;fontSize=19;" vertex="1" parent="R_bOfF44yfjxWM07QA_J-252">
          <mxGeometry x="80" width="40" height="40" as="geometry" />
        </mxCell>
        <mxCell id="R_bOfF44yfjxWM07QA_J-256" value="" style="whiteSpace=wrap;html=1;aspect=fixed;fontFamily=Comic Sans MS;fontSize=19;" vertex="1" parent="R_bOfF44yfjxWM07QA_J-252">
          <mxGeometry x="120" width="40" height="40" as="geometry" />
        </mxCell>
        <mxCell id="R_bOfF44yfjxWM07QA_J-257" value="" style="whiteSpace=wrap;html=1;aspect=fixed;fontFamily=Comic Sans MS;fontSize=19;" vertex="1" parent="R_bOfF44yfjxWM07QA_J-252">
          <mxGeometry x="160" width="40" height="40" as="geometry" />
        </mxCell>
        <mxCell id="R_bOfF44yfjxWM07QA_J-258" style="edgeStyle=none;rounded=0;orthogonalLoop=1;jettySize=auto;html=1;entryX=0;entryY=0.5;entryDx=0;entryDy=0;" edge="1" source="R_bOfF44yfjxWM07QA_J-257" parent="1">
          <mxGeometry relative="1" as="geometry">
            <mxPoint x="2320" y="940" as="targetPoint" />
          </mxGeometry>
        </mxCell>
        <mxCell id="R_bOfF44yfjxWM07QA_J-260" style="edgeStyle=none;rounded=0;orthogonalLoop=1;jettySize=auto;html=1;exitX=1;exitY=1;exitDx=0;exitDy=0;entryX=0.5;entryY=0;entryDx=0;entryDy=0;" edge="1" parent="1" source="R_bOfF44yfjxWM07QA_J-219" target="R_bOfF44yfjxWM07QA_J-248">
          <mxGeometry relative="1" as="geometry">
            <mxPoint x="1780" y="830" as="sourcePoint" />
            <mxPoint x="1960" y="840" as="targetPoint" />
          </mxGeometry>
        </mxCell>
        <mxCell id="R_bOfF44yfjxWM07QA_J-261" style="edgeStyle=none;rounded=0;orthogonalLoop=1;jettySize=auto;html=1;entryX=0.5;entryY=0;entryDx=0;entryDy=0;exitX=0;exitY=1;exitDx=0;exitDy=0;" edge="1" parent="1" source="R_bOfF44yfjxWM07QA_J-221" target="R_bOfF44yfjxWM07QA_J-255">
          <mxGeometry relative="1" as="geometry">
            <mxPoint x="2120" y="770" as="sourcePoint" />
            <mxPoint x="2120" y="890" as="targetPoint" />
          </mxGeometry>
        </mxCell>
      </root>
    </mxGraphModel>
  </diagram>
</mxfile>
